<svg width="539" height="465" viewBox="0 0 539 465" fill="none" xmlns="http://www.w3.org/2000/svg">
<g clip-path="url(#clip0)">
<path d="M95.4876 102.405C132.596 73.4312 90.0145 47.4497 111.014 20.9131C130.94 -4.27189 186.175 -0.108574 214.873 0.832697C249.316 1.96705 411.929 -0.567141 431.415 17.0636C448.895 32.8721 451.56 59.4811 447.549 77.1963C441.753 102.816 468.989 102.816 483.454 119.879C514.908 156.975 472.793 199.405 482.536 231.01C495.293 272.45 536.542 297.599 500.43 337.204C481.074 358.419 459.712 365.056 429.409 368.882C378.094 375.362 320.944 373.829 268.892 373.938C219.388 374.035 165.175 368.375 117.108 358.009C84.5673 350.986 21.5947 346.014 28.8145 301.448C33.136 274.743 74.7339 216.698 52.4146 176.187C38.9972 151.822 64.6288 126.504 95.4876 102.405Z" fill="#E6F3F9"/>
<path d="M462.726 99.7145C417.079 84.7386 455.972 47.4498 434.973 20.9132C415.047 -4.27183 359.825 -0.0964452 331.127 0.832759C296.684 1.96711 260.741 2.60669 226.686 7.37339C201.326 10.9213 156.662 12.8279 137.176 30.4587C119.696 46.2672 128.714 57.8762 132.544 75.6156C140.359 111.855 80.4269 127.735 56.568 147.84C24.4153 174.944 61.4976 197.957 51.7548 229.562C38.9972 271.002 9.44525 297.575 45.5701 337.18C64.9264 358.395 86.2881 365.032 116.591 368.858C167.905 375.338 225.056 373.806 277.108 373.914C326.611 374.011 380.825 368.351 428.892 357.985C461.433 350.962 524.405 345.99 517.185 301.424C512.864 274.719 486.754 261.143 473.168 240.652C457.279 216.686 472.469 191.392 482.756 168.97C494.297 143.797 487.284 107.981 462.726 99.7145Z" fill="url(#paint0_linear)"/>
<path d="M33.8347 212.703C46.6699 210.422 55.934 219.413 56.5421 219.98C57.1114 218.133 62.7009 201.166 80.8539 195.157C92.3305 191.343 102.436 194.059 105.916 195.157C103.613 189.364 104.829 182.92 109.06 178.31C113.628 173.351 121.003 171.335 127.873 173.218C135.636 162.031 149.882 156.239 163.894 158.568C177.726 160.897 188.814 170.672 192.114 183.439C196.306 177.611 203.823 174.666 210.927 176.114C217.279 177.381 222.351 181.907 224.279 187.82C232.935 179.397 246.055 176.235 257.946 179.795C268.543 182.908 276.642 190.873 279.618 200.756C288.132 194.481 299.595 192.116 310.257 195.241C326.197 199.923 336.238 215.708 332.77 231.673C315.303 231.673 297.836 231.673 280.381 231.673L258.606 261.215H14.2326C16.1604 221.995 24.066 214.405 33.8347 212.703Z" fill="url(#paint1_linear)"/>
<path d="M214.109 216.782C226.945 214.501 236.209 223.491 236.817 224.059C237.386 222.212 242.976 205.245 261.129 199.236C272.605 195.422 282.71 198.138 286.191 199.236C283.888 193.443 285.104 186.999 289.335 182.389C293.902 177.43 301.277 175.414 308.148 177.297C315.911 166.11 330.157 160.318 344.169 162.647C358.001 164.976 369.089 174.751 372.388 187.518C376.581 181.689 384.098 178.745 391.201 180.193C397.554 181.46 402.626 185.985 404.554 191.899C413.21 183.475 426.33 180.314 438.221 183.874C448.817 186.987 456.917 194.952 459.893 204.835C468.407 198.56 479.87 196.195 490.532 199.32C506.472 204.002 516.513 219.787 513.045 235.752C495.578 235.752 478.111 235.752 460.656 235.752H438.88H194.494C196.422 226.086 204.328 218.496 214.109 216.782Z" fill="url(#paint2_linear)"/>
<path d="M476.532 186.263C476.532 186.263 499.912 163.057 492.899 157.24C488.047 153.21 477.658 166.557 477.606 166.533C477.606 166.533 484.489 140.877 471.796 141.77C462.157 142.94 462.688 164.819 462.61 164.831C462.61 164.831 456.386 152.208 450.305 155.841C441.494 161.114 455.468 181.701 455.468 181.701C455.468 181.701 445.531 170.261 440.355 176.223C433.563 184.043 446.657 202.047 446.657 202.047C446.657 202.047 427.87 194.493 429.94 206.645C431.467 215.611 436.836 224.481 444.405 230.382C454.355 235.064 482.678 226.315 481.41 214.911C480.634 207.9 467.371 210.507 467.371 210.507C476.778 207.104 496.794 197.546 493.844 186.239C491.735 178.129 476.532 186.275 476.532 186.263Z" fill="url(#paint3_linear)"/>
<path d="M462.325 221.006C460.165 221.512 457.991 221.826 455.869 221.983C454.226 222.116 452.596 222.092 450.991 221.971C454.795 215.201 458.107 208.19 460.902 201.01C463.115 200.816 465.34 200.491 467.527 199.948C469.92 199.344 472.379 198.487 474.747 197.438C477.101 196.376 479.43 195.084 481.656 193.564C483.881 192.043 486.042 190.33 488.022 188.326C485.99 190.257 483.804 191.886 481.552 193.298C479.301 194.722 476.972 195.917 474.617 196.882C472.262 197.836 469.83 198.584 467.462 199.103C465.431 199.537 463.36 199.779 461.329 199.899C463.477 194.348 465.314 188.556 466.75 182.8C468.95 181.81 471.124 180.7 473.155 179.276C474.242 178.588 475.264 177.743 476.299 176.959C477.295 176.09 478.305 175.233 479.249 174.304C481.125 172.446 482.95 170.394 484.58 168.174C486.21 165.953 487.698 163.576 488.953 161.018C487.633 163.528 486.081 165.833 484.399 167.968C482.717 170.117 480.841 172.084 478.952 173.845C477.994 174.738 476.972 175.547 475.963 176.355C474.915 177.092 473.906 177.888 472.819 178.528C470.981 179.734 469.041 180.664 467.087 181.496C469.649 170.165 471.163 159.002 471.68 147.429C470.826 158.966 469.002 170.068 466.104 181.315C464.758 179.855 463.464 178.335 462.261 176.73C460.889 174.883 459.544 172.989 458.301 171.058C457.059 169.127 455.843 167.16 454.679 165.181C453.527 163.202 452.401 161.211 451.353 159.195C452.324 161.247 453.372 163.286 454.446 165.314C455.533 167.341 456.684 169.356 457.849 171.359C459.026 173.363 460.294 175.33 461.614 177.261C462.869 179.107 464.266 180.869 465.715 182.57C464.111 188.278 462.093 194.022 459.777 199.525C458.185 198.463 456.658 197.244 455.3 195.881C453.734 194.3 452.259 192.538 450.926 190.74C449.581 188.93 448.326 187.047 447.135 185.141C445.958 183.234 444.819 181.291 443.797 179.324C444.742 181.339 445.803 183.318 446.915 185.285C448.028 187.252 449.219 189.195 450.499 191.078C451.78 192.96 453.191 194.807 454.717 196.496C456.089 198.005 457.655 199.392 459.337 200.599C456.374 207.61 452.893 214.441 448.947 221.018C447.769 219.714 446.644 218.363 445.583 216.951C444.263 215.177 442.982 213.367 441.792 211.508C440.601 209.65 439.424 207.767 438.324 205.873C437.211 203.978 436.138 202.071 435.128 200.129C436.06 202.096 437.069 204.051 438.104 206.006C439.139 207.948 440.239 209.891 441.352 211.81C442.465 213.729 443.681 215.623 444.923 217.47C445.984 219.039 447.135 220.547 448.339 222.007C443.694 229.718 438.247 237.031 432.359 243.958C433.33 244.658 433.821 245.008 434.805 245.708C440.588 238.528 445.893 230.961 450.383 223.009C452.156 223.093 453.967 223.057 455.766 222.84C457.939 222.586 460.139 222.176 462.325 221.573C464.499 220.969 466.686 220.245 468.834 219.364C470.981 218.483 473.116 217.47 475.199 216.275C473.09 217.373 470.943 218.302 468.795 219.087C466.66 219.871 464.473 220.499 462.325 221.006Z" fill="#6943D8"/>
<path d="M60.3202 220.45C60.3202 220.45 48.6365 203.049 53.8508 200.189C57.4607 198.21 62.248 207.852 62.2739 207.852C62.2739 207.852 61.3553 190.825 69.2608 192.864C75.1997 194.734 71.9391 208.504 71.9779 208.516C71.9779 208.516 77.6063 201.251 80.9703 204.268C85.8353 208.624 74.2422 220.028 74.2422 220.028C74.2422 220.028 82.0572 213.946 84.5414 218.314C87.789 224.047 77.0887 233.918 77.0887 233.918C77.0887 233.918 89.9886 231.323 87.0386 238.781C84.8778 244.272 80.2975 249.256 74.708 252.116C67.7858 253.914 51.0431 245.092 53.3721 238.021C54.8083 233.676 62.8432 236.874 62.8432 236.874C57.3572 233.628 45.9712 225.253 49.3482 218.435C51.7806 213.536 60.3072 220.462 60.3202 220.45Z" fill="url(#paint4_linear)"/>
<path d="M64.6546 244.079C65.9485 244.646 67.2812 245.104 68.6139 245.454C69.636 245.732 70.6711 245.901 71.6933 246.009C70.1924 241.279 69.0279 236.464 68.2257 231.589C66.8542 231.215 65.4827 230.744 64.1759 230.141C62.7397 229.477 61.3035 228.656 59.945 227.715C58.5993 226.774 57.2925 225.676 56.0892 224.457C54.8859 223.238 53.7473 221.898 52.764 220.402C53.7861 221.862 54.9506 223.141 56.1927 224.3C57.4219 225.458 58.7417 226.496 60.1002 227.377C61.4588 228.258 62.9079 229.018 64.3312 229.61C65.5603 230.129 66.8283 230.515 68.1093 230.828C67.4882 227.063 67.113 223.19 66.9707 219.388C65.7156 218.507 64.4864 217.554 63.3866 216.42C62.7915 215.853 62.261 215.213 61.7046 214.585C61.1871 213.922 60.6695 213.258 60.1908 212.558C59.2592 211.17 58.3664 209.65 57.6419 208.057C56.9044 206.464 56.2833 204.787 55.8305 203.025C56.3351 204.762 57.0079 206.404 57.7842 207.96C58.5605 209.517 59.4792 210.977 60.4496 212.317C60.9283 212.993 61.4717 213.62 62.0022 214.26C62.5586 214.851 63.102 215.466 63.6972 215.997C64.7064 216.975 65.8062 217.783 66.9318 218.544C66.8283 211.074 67.3718 203.845 68.588 196.46C67.5788 203.857 67.2553 211.098 67.5788 218.544C68.6268 217.771 69.649 216.975 70.6194 216.094C71.7321 215.08 72.8448 214.042 73.8799 212.968C74.928 211.894 75.9631 210.796 76.9593 209.674C77.9556 208.564 78.926 207.429 79.8576 206.271C78.9778 207.466 78.0332 208.624 77.0758 209.783C76.1183 210.941 75.122 212.087 74.1128 213.21C73.1036 214.344 72.0297 215.43 70.9428 216.504C69.8948 217.53 68.7821 218.471 67.6305 219.388C67.8893 223.19 68.381 227.051 69.1185 230.804C70.27 230.322 71.3957 229.718 72.4308 229.018C73.6341 228.198 74.7986 227.256 75.8854 226.279C76.9723 225.289 78.0203 224.24 79.0295 223.178C80.0387 222.104 81.0091 221.017 81.9149 219.883C81.048 221.054 80.1164 222.176 79.146 223.286C78.1756 224.396 77.1664 225.495 76.1054 226.532C75.0444 227.57 73.9058 228.572 72.7154 229.465C71.6545 230.261 70.4771 230.949 69.2479 231.528C70.1795 236.307 71.4733 241.038 73.0907 245.66C74.0093 244.972 74.9021 244.248 75.756 243.475C76.8299 242.51 77.878 241.508 78.8872 240.47C79.8835 239.433 80.8798 238.383 81.8372 237.309C82.7947 236.235 83.7392 235.161 84.632 234.05C83.778 235.185 82.8853 236.307 81.9666 237.417C81.048 238.528 80.1034 239.626 79.133 240.712C78.1626 241.798 77.1534 242.848 76.1054 243.873C75.2256 244.742 74.294 245.563 73.3365 246.347C75.2385 251.766 77.7098 257.027 80.5045 262.096C79.7929 262.421 79.4436 262.59 78.7319 262.916C76.0407 257.703 73.6988 252.297 71.9132 246.746C70.7746 246.589 69.649 246.359 68.5362 246.009C67.1906 245.587 65.8579 245.08 64.5641 244.441C63.2702 243.813 61.9893 243.089 60.7472 242.281C59.505 241.472 58.2888 240.579 57.1373 239.577C58.3276 240.519 59.5568 241.351 60.8118 242.1C62.0669 242.86 63.3608 243.511 64.6546 244.079Z" fill="#6943D8"/>
<path d="M84.425 185.43C84.425 185.43 66.2979 158.447 74.3975 154.007C79.9999 150.929 87.4138 165.905 87.4656 165.893C87.4656 165.893 86.0423 139.477 98.3082 142.651C107.521 145.547 102.449 166.907 102.526 166.931C102.526 166.931 111.247 155.672 116.461 160.342C124.004 167.1 106.02 184.779 106.02 184.779C106.02 184.779 118.143 175.354 121.986 182.124C127.032 191.018 110.432 206.319 110.432 206.319C110.432 206.319 130.435 202.301 125.868 213.85C122.504 222.369 115.4 230.105 106.744 234.521C96.0051 237.309 70.0371 223.624 73.647 212.667C75.8725 205.933 88.3324 210.881 88.3324 210.881C79.8188 205.849 62.1575 192.852 67.3976 182.293C71.1887 174.702 84.425 185.443 84.425 185.43Z" fill="url(#paint5_linear)"/>
<path d="M91.1531 222.08C93.1715 222.961 95.2288 223.661 97.286 224.216C98.8775 224.638 100.482 224.916 102.073 225.085C99.7444 217.76 97.9459 210.278 96.7038 202.723C94.5818 202.132 92.447 201.42 90.4285 200.479C88.2031 199.453 85.9647 198.174 83.8686 196.714C81.7725 195.254 79.767 193.552 77.8909 191.669C76.0148 189.775 74.2552 187.699 72.7284 185.382C74.3198 187.639 76.1313 189.63 78.0333 191.428C79.9482 193.226 81.9796 194.831 84.0886 196.195C86.1976 197.558 88.436 198.729 90.6485 199.658C92.5505 200.455 94.5301 201.07 96.5097 201.553C95.5522 195.712 94.9571 189.702 94.7371 183.801C92.7834 182.438 90.8814 180.953 89.1864 179.192C88.2678 178.323 87.4397 177.309 86.5857 176.344C85.7835 175.318 84.9684 174.292 84.2438 173.206C82.7947 171.046 81.4232 168.705 80.2846 166.231C79.146 163.757 78.1756 161.151 77.4898 158.423C78.2661 161.114 79.3142 163.661 80.5175 166.074C81.7208 168.476 83.144 170.744 84.6449 172.82C85.3954 173.87 86.2364 174.847 87.0515 175.825C87.9184 176.742 88.7594 177.695 89.691 178.516C91.2437 180.024 92.9516 181.291 94.6983 182.462C94.5301 170.877 95.3711 159.666 97.2731 148.214C95.7204 159.69 95.2029 170.913 95.7075 182.462C97.3248 181.267 98.9163 180.024 100.43 178.661C102.164 177.092 103.872 175.487 105.489 173.809C107.106 172.132 108.711 170.431 110.264 168.705C111.803 166.979 113.317 165.229 114.766 163.431C113.395 165.278 111.946 167.088 110.458 168.874C108.97 170.672 107.43 172.446 105.864 174.196C104.299 175.945 102.643 177.647 100.935 179.3C99.3174 180.881 97.5836 182.353 95.7981 183.777C96.1862 189.666 96.9755 195.664 98.1012 201.48C99.8867 200.732 101.633 199.803 103.251 198.705C105.114 197.438 106.925 195.978 108.607 194.445C110.302 192.912 111.933 191.295 113.485 189.63C115.038 187.977 116.552 186.275 117.962 184.525C116.616 186.336 115.167 188.085 113.666 189.811C112.166 191.537 110.6 193.238 108.957 194.843C107.314 196.46 105.541 198.017 103.691 199.393C102.035 200.624 100.21 201.698 98.3082 202.591C99.7573 210.012 101.75 217.337 104.26 224.505C105.683 223.443 107.068 222.321 108.4 221.126C110.057 219.63 111.687 218.073 113.252 216.468C114.805 214.863 116.345 213.234 117.833 211.569C119.321 209.904 120.77 208.226 122.167 206.513C120.847 208.274 119.45 210.012 118.027 211.738C116.603 213.464 115.128 215.165 113.641 216.842C112.14 218.52 110.561 220.161 108.957 221.754C107.598 223.106 106.149 224.373 104.661 225.591C107.624 234.003 111.441 242.16 115.788 250.016C114.689 250.523 114.132 250.789 113.032 251.295C108.853 243.21 105.217 234.823 102.462 226.207C100.702 225.966 98.9422 225.604 97.2213 225.073C95.1382 224.421 93.068 223.624 91.0496 222.647C89.0441 221.669 87.0515 220.559 85.1237 219.304C83.1958 218.049 81.3197 216.674 79.5212 215.117C81.3585 216.577 83.2734 217.868 85.2272 219.027C87.1292 220.185 89.1346 221.199 91.1531 222.08Z" fill="#6943D8"/>
<path d="M36.1119 238.781C55.1188 235.402 68.8209 248.713 69.7266 249.557C70.5676 246.83 78.8484 221.705 105.709 212.812C122.698 207.164 137.655 211.195 142.804 212.812C139.389 204.244 141.2 194.698 147.462 187.88C154.216 180.543 165.137 177.562 175.306 180.35C186.796 163.793 207.886 155.225 228.627 158.664C249.096 162.104 265.515 176.585 270.393 195.471C276.59 186.83 287.731 182.486 298.237 184.634C307.63 186.516 315.148 193.202 318.007 201.963C330.816 189.497 350.237 184.827 367.847 190.088C383.529 194.686 395.523 206.488 399.922 221.126C412.524 211.834 429.5 208.335 445.272 212.956C468.872 219.883 483.739 243.246 478.589 266.886C452.738 266.886 426.886 266.886 401.035 266.886H368.804H7.0904C9.93691 252.538 21.6335 241.315 36.1119 238.781Z" fill="url(#paint6_linear)"/>
<path d="M514.403 212.788C514.403 212.788 546.828 181.026 537.227 172.965C530.577 167.377 516.15 185.672 516.085 185.636C516.085 185.636 525.815 150.362 508.335 151.497C495.047 153.041 495.578 183.162 495.461 183.174C495.461 183.174 487.012 165.736 478.602 170.696C466.427 177.876 485.46 206.356 485.46 206.356C485.46 206.356 471.887 190.523 464.706 198.681C455.274 209.385 473.142 234.292 473.142 234.292C473.142 234.292 447.342 223.721 450.085 240.495C452.104 252.852 459.401 265.113 469.778 273.295C483.441 279.823 522.516 268.021 520.886 252.309C519.877 242.643 501.607 246.13 501.607 246.13C514.585 241.533 542.248 228.536 538.288 212.933C535.429 201.722 514.416 212.8 514.403 212.788Z" fill="url(#paint7_linear)"/>
<path d="M494.517 260.503C491.541 261.179 488.552 261.589 485.615 261.806C483.351 261.975 481.099 261.927 478.9 261.746C484.205 252.454 488.837 242.836 492.744 232.953C495.785 232.711 498.864 232.277 501.879 231.541C505.191 230.732 508.581 229.574 511.842 228.138C515.102 226.702 518.311 224.928 521.403 222.864C524.483 220.801 527.472 218.447 530.215 215.696C527.407 218.339 524.366 220.559 521.261 222.49C518.156 224.433 514.934 226.062 511.686 227.365C508.439 228.669 505.075 229.67 501.814 230.358C499.019 230.949 496.16 231.263 493.352 231.408C496.367 223.781 498.955 215.817 500.986 207.912C504.027 206.573 507.028 205.064 509.836 203.122C511.337 202.18 512.747 201.034 514.183 199.948C515.568 198.765 516.965 197.595 518.272 196.303C520.873 193.757 523.409 190.945 525.673 187.904C527.937 184.863 530.02 181.605 531.754 178.093C529.917 181.533 527.743 184.694 525.414 187.639C523.085 190.583 520.485 193.262 517.845 195.688C516.525 196.907 515.102 198.017 513.718 199.127C512.269 200.141 510.858 201.215 509.357 202.084C506.808 203.725 504.13 204.992 501.426 206.114C505.075 190.535 507.248 175.185 508.076 159.244C506.783 175.125 504.169 190.402 500.067 205.861C498.23 203.834 496.457 201.746 494.827 199.525C492.951 196.967 491.127 194.348 489.432 191.682C487.737 189.003 486.081 186.299 484.502 183.56C482.937 180.833 481.397 178.081 479.987 175.294C481.293 178.13 482.717 180.941 484.192 183.741C485.667 186.541 487.232 189.328 488.824 192.092C490.428 194.855 492.162 197.571 493.96 200.25C495.681 202.808 497.583 205.233 499.563 207.599C497.299 215.455 494.465 223.347 491.23 230.889C489.044 229.417 486.948 227.715 485.11 225.821C482.975 223.636 480.957 221.199 479.133 218.701C477.308 216.203 475.587 213.596 473.97 210.953C472.366 208.323 470.813 205.644 469.429 202.904C470.71 205.692 472.146 208.431 473.66 211.134C475.173 213.85 476.791 216.541 478.537 219.147C480.271 221.742 482.212 224.3 484.295 226.641C486.158 228.729 488.306 230.648 490.609 232.337C486.456 241.967 481.617 251.344 476.105 260.37C474.501 258.56 472.961 256.702 471.525 254.747C469.726 252.297 467.979 249.787 466.362 247.229C464.745 244.67 463.14 242.064 461.64 239.445C460.126 236.826 458.651 234.184 457.292 231.517C458.56 234.244 459.919 236.935 461.329 239.626C462.739 242.317 464.227 244.996 465.741 247.651C467.268 250.306 468.911 252.912 470.619 255.483C472.055 257.655 473.634 259.731 475.277 261.758C468.808 272.341 461.238 282.369 453.061 291.855C454.394 292.832 455.067 293.315 456.399 294.292C464.434 284.445 471.809 274.079 478.072 263.158C480.517 263.278 483.001 263.254 485.485 262.977C488.487 262.639 491.515 262.096 494.517 261.287C497.518 260.479 500.533 259.489 503.496 258.295C506.459 257.1 509.409 255.712 512.294 254.095C509.383 255.591 506.42 256.846 503.444 257.908C500.494 258.97 497.493 259.827 494.517 260.503Z" fill="white"/>
<path d="M65.6246 261.396C66.1551 259.212 64.6154 257.148 64.4601 256.931C66.5174 257.257 68.277 256.17 68.7946 254.409C69.3251 252.586 68.4711 250.463 66.7115 249.195C68.7299 248.447 70.0238 246.697 70.1143 244.694C70.2437 242.16 68.4841 239.602 65.7281 238.455C69.2733 235.499 70.4507 230.817 69.0016 226.786C67.1514 221.657 61.7042 219.871 61.3678 219.763C63.011 216.854 62.5323 213.343 60.255 211.05C58.2884 209.059 55.209 208.226 52.4013 209.071C54.5361 205.885 54.4456 201.891 52.2977 199.055C49.7488 195.688 45.4402 195.652 45.1556 195.652C46.6694 191.223 45.9578 186.432 43.2018 182.896C40.0707 178.866 35.5033 178.335 34.7788 178.274C34.8176 177.792 35.1799 173.858 32.6568 170.817C30.4831 168.186 25.0877 166.545 22.3576 169.26C20.5203 168.005 16.0824 167.317 13.3523 169.465C10.9974 171.323 9.6777 174.919 10.027 178.673C5.38205 177.767 0.969958 181.46 0.128943 187.409C-0.660317 192.912 1.91448 198.922 6.0678 201.468C5.62789 201.685 2.05681 203.471 1.53926 208.781C1.12522 213.005 2.9237 217.735 6.04193 220.692C5.69258 221.042 2.62611 224.24 3.68708 230.165C4.54104 234.859 7.74983 239.276 11.6573 241.231C10.5575 245.201 11.7996 250.39 14.9179 254.384C18.3466 258.765 23.341 260.877 27.2226 259.851C27.1191 263.652 30.1079 267.828 33.4849 269.083C36.2667 270.121 38.8415 269.083 39.799 266.621C41.0928 269.638 44.0946 271.895 46.7471 272.027C48.9337 272.136 50.564 270.808 50.9909 268.745C52.1942 270.253 53.941 271.207 55.4548 271.183C57.4732 271.158 60.6561 268.504 60.3844 265.282C62.7393 265.511 65.1718 263.254 65.6246 261.396Z" fill="url(#paint8_linear)"/>
<path d="M56.4515 240.652C55.4294 242.631 54.3554 244.646 53.1651 246.553C52.6087 247.53 51.9747 248.471 51.3925 249.413C51.0173 250.016 50.6032 250.607 50.2021 251.187C45.7124 245.129 43.681 241.979 40.0453 235.45C40.6146 234.714 41.2227 233.99 41.7661 233.266C42.4389 232.349 43.1635 231.42 43.8233 230.491C45.1302 228.644 46.4758 226.714 47.705 224.795C48.9341 222.876 50.1245 220.897 51.2372 218.906C52.3499 216.915 53.4109 214.911 54.2907 212.824C53.3462 214.863 52.1947 216.83 51.0173 218.761C49.8398 220.692 48.5848 222.611 47.278 224.457C45.9841 226.291 44.5609 228.162 43.1894 229.911C42.5036 230.792 41.7532 231.685 41.0415 232.554C40.5369 233.17 39.9935 233.773 39.463 234.376C36.1895 228.391 34.7404 225.314 32.2173 219.002C33.3042 217.578 34.391 216.118 35.4132 214.658C36.513 213.089 37.5869 211.46 38.6349 209.843C39.67 208.226 40.6663 206.561 41.6238 204.895C42.5812 203.23 43.4999 201.553 44.328 199.827C43.4352 201.504 42.4389 203.146 41.4167 204.751C40.3946 206.356 39.3336 207.96 38.2338 209.505C37.134 211.05 35.9825 212.607 34.831 214.091C33.8476 215.358 32.8125 216.601 31.7645 217.832C28.7239 210 27.4818 205.969 25.6445 197.763C27.7794 195.471 29.7978 193.045 31.6998 190.535C33.6406 187.965 37.1599 182.582 37.1599 182.582C37.1599 182.582 33.5112 187.856 31.5187 190.342C29.6296 192.719 27.6112 194.976 25.5022 197.112C23.6002 188.399 22.9791 183.946 22.5004 174.944C22.6686 180.639 22.8885 183.475 23.639 189.087C21.1159 188.604 18.5929 187.808 16.1345 186.77C13.5986 185.696 8.68186 182.836 8.68186 182.836C8.68186 182.836 13.5339 185.889 16.0569 187.059C18.5411 188.206 21.103 189.111 23.7037 189.69C24.8811 198.282 25.7997 202.53 28.2969 210.821C26.7572 210.7 25.2175 210.507 23.6778 210.217C21.9311 209.891 20.1585 209.481 18.3988 208.962C14.8924 207.936 11.386 206.597 7.97023 204.847C11.3472 206.79 14.8407 208.335 18.3471 209.553C20.1067 210.169 21.8793 210.664 23.6519 211.086C25.3081 211.484 26.9772 211.762 28.6463 211.967C30.7553 218.809 32.0362 222.164 35.0121 228.705C31.0917 229.393 26.9642 229.489 22.798 229.115C18.36 228.717 13.8315 227.848 9.30292 226.436C13.8185 228.065 18.3729 229.127 22.8627 229.718C27.1324 230.273 31.3893 230.346 35.4908 229.755C38.5832 236.404 40.3428 239.65 44.2891 245.913C42.5424 246.347 40.7698 246.709 38.9584 246.951C36.7976 247.24 34.5592 247.434 32.3079 247.47C27.8052 247.542 23.1473 247.18 18.4247 246.166C23.1603 247.385 27.8699 247.952 32.4502 248.061C34.7404 248.109 37.0176 248.013 39.2301 247.808C41.158 247.627 43.047 247.301 44.9102 246.915C52.971 259.248 62.6233 269.771 73.6341 279.835C74.4104 279.026 74.7986 278.616 75.5749 277.808C66.479 269.855 58.0947 261.685 50.9008 252.14C51.3278 251.428 51.7806 250.716 52.1817 250.004C52.7381 249.014 53.3333 248.037 53.8508 247.023C54.9506 245.032 55.9598 242.956 56.9044 240.917C57.8618 238.866 58.7417 236.754 59.5439 234.642C60.3461 232.53 61.1094 230.406 61.6787 228.234C61.0318 230.382 60.2037 232.47 59.311 234.533C58.4311 236.597 57.4737 238.672 56.4515 240.652Z" fill="white"/>
<path d="M373.682 264.702C375.817 261.48 378.107 258.427 380.126 255.036C381.51 252.707 382.765 250.245 383.878 247.639C383.166 241.171 381.368 234.22 378.78 228.174C378.586 228.608 378.379 229.018 378.146 229.417C374.381 236.102 369.749 242.872 366.294 249.642C365.842 250.535 365.427 251.5 365.013 252.478C366.023 247.265 367.355 242.208 369.063 237.405C370.926 232.192 373.242 227.293 374.316 221.573C374.433 220.933 374.536 220.257 374.601 219.606C369.93 211.714 363.668 204.654 355.128 200.261C355.245 204.726 355.581 209.3 355.814 213.753C356.008 217.446 356.137 221.162 356.461 224.855C353.938 216.311 352.411 207.526 351.48 198.705C347.249 197.208 343.341 196.81 339.977 196.943C340.275 200.442 340.689 203.978 341.193 207.478C339.783 204.087 338.411 200.66 337.105 197.208C331.114 198.005 327.439 200.213 327.439 200.213C326.314 200.756 323.7 202.494 320.685 205.209C323.26 208.636 325.356 212.45 327.051 216.384C324.205 213.234 321.048 210.471 317.645 208.166C315.549 210.362 313.388 212.957 311.46 215.865C317.58 220.197 321.578 225.7 325.499 231.722C323.454 229.634 321.229 227.715 318.913 226.05C315.73 223.769 312.353 221.887 308.924 220.149C305.884 225.543 304.137 233.085 304.81 239.143C305.832 239.722 306.893 240.278 307.915 240.821C313.142 243.572 318.641 246.335 322.885 250.8C324.761 252.767 326.366 255.048 327.841 257.401C327.918 257.534 327.996 257.655 328.086 257.776C323.623 253.612 317.257 249.823 311.447 247.675C309.675 247.023 307.824 246.42 305.974 245.998C307.229 251.464 308.523 256.557 309.869 261.372C310.593 261.673 311.305 261.975 312.042 262.289C319.767 265.535 327.116 270.302 331.8 276.903C331.968 277.144 332.162 277.422 332.33 277.675C327.931 273.886 323.467 270.278 318.279 268.226C316.028 267.333 313.686 266.742 311.318 266.307C313.621 273.524 316.105 280.595 318.809 287.679C319.236 287.932 319.689 288.198 320.116 288.439C324.554 290.973 329.238 293.459 332.718 297.49C334.866 299.964 336.445 302.957 337.648 306.179C337.428 306.022 337.182 305.865 336.949 305.708C332.718 302.836 328.125 300.543 323.364 298.793C330.079 314.59 337.803 354.811 337.803 354.811C337.816 354.811 362.128 320.841 372.22 303.15C370.279 304.32 368.365 305.527 366.45 306.734C364.004 308.278 361.507 309.823 359.023 311.319C359.489 310.74 359.98 310.161 360.485 309.63C361.727 308.302 363.073 307.084 364.315 305.744C365.712 304.236 366.993 302.522 368.313 300.857C371.47 296.85 374.821 293.061 378.327 289.622C382.351 278.737 384.085 267.912 384.421 256.448C384.201 256.822 383.982 257.172 383.749 257.534C382.312 259.899 380.824 262.277 379.13 264.292C377.499 266.235 375.649 267.864 373.838 269.469C371.547 271.496 369.244 273.584 367.058 275.792C369.141 271.967 371.34 268.238 373.682 264.702Z" fill="url(#paint9_linear)"/>
<path d="M351.35 302.51C351.725 296.766 351.79 293.882 351.7 288.138C353.731 284.421 355.853 280.704 358.014 277.047C360.291 273.186 362.659 269.276 364.975 265.39C367.291 261.504 369.607 257.558 371.884 253.588C374.161 249.63 376.399 245.599 378.638 241.605C376.27 245.467 373.915 249.364 371.522 253.202C369.128 257.051 366.695 260.889 364.276 264.666C361.843 268.455 359.372 272.281 356.978 276.058C355.167 278.918 353.369 281.826 351.622 284.759C351.389 277.977 351.104 274.574 350.224 267.828C352.398 264.256 354.404 260.491 356.112 256.545C357.858 252.526 359.359 248.23 360.575 243.813C361.792 239.397 362.697 234.775 363.293 230.044C363.888 225.302 364.172 220.414 363.991 215.406C364.017 220.366 363.577 225.193 362.853 229.839C362.128 234.497 361.08 239.01 359.747 243.319C358.415 247.627 356.797 251.79 354.96 255.676C353.433 258.922 351.687 262.035 349.823 264.992C349.073 259.839 348.594 257.281 347.469 252.176C347.559 252.212 347.611 252.224 347.701 252.261C348.335 248.447 348.801 244.562 349.021 240.628C349.241 236.693 349.345 232.615 349.086 228.62C348.555 220.27 347.249 212.305 345.424 203.978C346.938 212.269 347.973 220.197 348.193 228.475C348.297 232.409 348.064 236.428 347.701 240.29C347.443 243.053 347.067 245.768 346.589 248.447C343.47 236.742 339.55 225.628 334.633 214.477C339.265 225.796 342.875 237.08 345.67 248.918C341.698 243.681 337.777 238.359 333.715 233.206C329.057 227.317 324.192 221.573 319.185 215.889C323.985 221.766 328.617 227.703 333.068 233.785C335.306 236.838 337.454 239.988 339.641 243.126C341.814 246.263 343.975 249.449 346.226 252.586C346.291 252.526 346.317 252.49 346.382 252.43C347.249 256.967 347.611 259.248 348.18 263.809C346.265 260.829 344.208 257.993 341.983 255.362C339.02 251.826 335.837 248.532 332.498 245.551C329.147 242.582 325.641 239.843 322.018 237.405C318.395 234.98 314.656 232.796 310.826 230.961C314.604 232.928 318.279 235.233 321.811 237.78C325.343 240.338 328.746 243.186 331.981 246.251C335.216 249.328 338.256 252.719 341.064 256.303C343.872 259.887 346.382 263.809 348.646 267.9C349.319 274.537 349.5 277.856 349.552 284.493C347.779 281.585 345.774 278.87 343.639 276.408C340.74 273.089 337.519 270.072 334.18 267.405C330.855 264.751 327.323 262.373 323.726 260.286C320.129 258.198 316.416 256.364 312.638 254.843C316.377 256.484 320.013 258.451 323.532 260.672C327.051 262.892 330.48 265.378 333.689 268.154C336.911 270.929 339.99 274.031 342.733 277.422C345.334 280.632 347.65 284.216 349.565 288.053C349.5 293.23 349.371 295.813 348.931 300.965C347.585 298.854 346.097 296.85 344.48 295.064C342.151 292.482 339.589 290.153 336.911 288.113C334.232 286.074 331.412 284.264 328.513 282.683C325.615 281.102 322.639 279.714 319.586 278.592C322.587 279.847 325.499 281.38 328.306 283.081C331.114 284.795 333.831 286.738 336.393 288.886C338.955 291.034 341.374 293.484 343.535 296.114C345.476 298.479 347.171 301.146 348.62 303.958C344.816 334.308 334.646 361.798 317.567 387.888C319.314 388.902 320.194 389.409 321.94 390.422C338.489 363.608 348.09 335.539 351.156 304.743C356.137 301.677 360.757 297.78 365.013 293.399C369.607 288.669 373.954 283.093 377.292 277.494C373.747 282.828 369.219 288.113 364.483 292.542C360.407 296.44 355.995 299.843 351.35 302.51Z" fill="#5148FF"/>
<path d="M28.284 266.73C26.7701 264.461 25.1528 262.301 23.7425 259.911C22.7592 258.258 21.8793 256.52 21.0901 254.686C21.5947 250.113 22.8627 245.213 24.687 240.941C24.8293 241.243 24.9717 241.545 25.1269 241.822C27.7794 246.541 31.0529 251.319 33.4983 256.098C33.8217 256.726 34.1064 257.413 34.404 258.101C33.6923 254.421 32.7478 250.849 31.5445 247.458C30.2248 243.777 28.5945 240.326 27.8311 236.271C27.7406 235.812 27.6759 235.342 27.637 234.883C30.9364 229.308 35.3614 224.324 41.3909 221.223C41.3132 224.372 41.0674 227.607 40.8992 230.744C40.7569 233.351 40.6663 235.981 40.4463 238.588C42.2319 232.554 43.3058 226.352 43.9657 220.125C46.9545 219.075 49.7104 218.785 52.0912 218.882C51.8841 221.356 51.5866 223.841 51.2243 226.315C52.2206 223.926 53.191 221.5 54.1096 219.063C58.3405 219.618 60.9283 221.175 60.9283 221.175C61.7175 221.561 63.5678 222.792 65.7027 224.698C63.8912 227.124 62.4033 229.803 61.2129 232.59C63.2184 230.358 65.4568 228.415 67.8505 226.786C69.3384 228.343 70.8523 230.165 72.2108 232.228C67.8893 235.294 65.0687 239.179 62.2998 243.427C63.7489 241.955 65.3145 240.603 66.9448 239.421C69.1832 237.804 71.5768 236.476 73.9964 235.257C76.1442 239.071 77.3734 244.393 76.8946 248.677C76.1701 249.087 75.4196 249.485 74.695 249.859C71.0075 251.802 67.1259 253.757 64.1241 256.907C62.8044 258.294 61.6658 259.911 60.6178 261.565C60.566 261.661 60.5143 261.746 60.4496 261.83C63.5937 258.886 68.0963 256.207 72.1979 254.698C73.4529 254.24 74.7468 253.805 76.0666 253.516C75.1867 257.377 74.2681 260.973 73.3236 264.376C72.8189 264.594 72.3014 264.799 71.7838 265.016C66.3237 267.309 61.1482 270.676 57.8359 275.334C57.7195 275.503 57.5772 275.696 57.4607 275.877C60.566 273.21 63.7101 270.652 67.3847 269.204C68.9762 268.576 70.6194 268.154 72.3014 267.852C70.6711 272.944 68.9244 277.94 67.0095 282.948C66.7119 283.129 66.3884 283.311 66.0908 283.479C62.9597 285.265 59.6474 287.027 57.189 289.875C55.6752 291.625 54.5495 293.737 53.7085 296.006C53.8638 295.897 54.0449 295.788 54.2002 295.68C57.189 293.652 60.4366 292.035 63.7877 290.792C59.0522 301.943 53.592 330.35 53.592 330.35C53.5791 330.35 36.4095 306.36 29.2932 293.87C30.6647 294.69 32.0233 295.547 33.3689 296.404C35.0897 297.502 36.8494 298.576 38.609 299.638C38.2726 299.228 37.9362 298.829 37.574 298.443C36.6941 297.502 35.7496 296.645 34.8698 295.692C33.8735 294.63 32.9807 293.423 32.0491 292.241C29.8107 289.405 27.4559 286.738 24.9846 284.312C22.151 276.625 20.9219 268.986 20.689 260.889C20.8442 261.154 20.9995 261.396 21.1548 261.661C22.164 263.339 23.212 265.016 24.4153 266.44C25.5669 267.816 26.8737 268.962 28.1546 270.097C29.7719 271.533 31.4022 272.993 32.9419 274.562C31.4798 271.858 29.9401 269.216 28.284 266.73Z" fill="url(#paint10_linear)"/>
<path d="M44.0433 293.423C43.7845 289.369 43.7328 287.341 43.7975 283.274C42.3613 280.644 40.8733 278.025 39.3336 275.443C37.7163 272.715 36.0601 269.964 34.4169 267.212C32.7866 264.473 31.1434 261.686 29.539 258.886C27.9346 256.086 26.3561 253.25 24.7646 250.427C26.4337 253.154 28.1028 255.905 29.7849 258.62C31.4798 261.336 33.1877 264.039 34.9086 266.718C36.6294 269.397 38.3632 272.1 40.0582 274.767C41.3391 276.782 42.6071 278.846 43.8492 280.909C44.0174 276.118 44.2115 273.717 44.8326 268.962C43.2929 266.44 41.8825 263.785 40.6663 260.998C39.4371 258.162 38.3762 255.133 37.5093 252.007C36.6553 248.882 36.0084 245.624 35.5943 242.281C35.1803 238.938 34.9733 235.487 35.1027 231.951C35.0897 235.463 35.3873 238.854 35.9049 242.148C36.4224 245.431 37.147 248.628 38.0915 251.669C39.036 254.71 40.1746 257.655 41.4685 260.394C42.5553 262.687 43.7716 264.883 45.0913 266.971C45.6218 263.339 45.9582 261.529 46.7475 257.92C46.6828 257.945 46.644 257.957 46.5793 257.981C46.1394 255.29 45.803 252.55 45.6477 249.763C45.4924 246.987 45.4148 244.103 45.5959 241.291C45.9712 235.402 46.9028 229.767 48.1837 223.89C47.1098 229.743 46.3852 235.342 46.2299 241.183C46.1523 243.958 46.3205 246.794 46.5793 249.521C46.7604 251.464 47.0321 253.395 47.3685 255.278C49.5681 247.011 52.337 239.167 55.8046 231.299C52.544 239.3 49.9822 247.253 48.0155 255.616C50.8232 251.911 53.5921 248.158 56.4644 244.525C59.7509 240.362 63.1926 236.307 66.7248 232.289C63.3349 236.44 60.0614 240.628 56.9302 244.924C55.3517 247.072 53.8379 249.304 52.2982 251.525C50.7585 253.745 49.2447 255.99 47.6403 258.198C47.6014 258.15 47.5756 258.126 47.5238 258.089C46.9157 261.299 46.6569 262.904 46.2558 266.126C47.6014 264.027 49.0635 262.023 50.6291 260.165C52.7252 257.667 54.9636 255.338 57.3313 253.238C59.6991 251.138 62.1704 249.208 64.7323 247.494C67.2941 245.78 69.9336 244.248 72.6378 242.945C69.9724 244.332 67.3847 245.961 64.8875 247.76C62.3904 249.558 59.9838 251.573 57.7066 253.745C55.4293 255.917 53.2815 258.307 51.289 260.841C49.3093 263.375 47.5367 266.138 45.9323 269.035C45.4536 273.717 45.3242 276.07 45.2983 280.752C46.5534 278.701 47.9637 276.782 49.4775 275.044C51.5219 272.703 53.7991 270.567 56.1539 268.697C58.5088 266.814 60.993 265.149 63.5419 263.665C66.0779 262.192 68.7044 260.889 71.3698 259.827C68.7303 260.986 66.1685 262.373 63.6842 263.942C61.2 265.511 58.7805 267.273 56.5162 269.228C54.239 271.183 52.0653 273.379 50.1374 275.768C48.3001 278.037 46.6699 280.559 45.3242 283.274C45.376 286.931 45.4536 288.753 45.7771 292.398C46.7345 290.901 47.7826 289.501 48.9212 288.234C50.5644 286.412 52.3758 284.759 54.2649 283.323C56.1539 281.887 58.1465 280.608 60.1908 279.485C62.2351 278.363 64.3312 277.385 66.4919 276.589C64.37 277.482 62.3127 278.556 60.3331 279.763C58.3535 280.97 56.4256 282.345 54.6142 283.866C52.8028 285.386 51.0949 287.112 49.5681 288.97C48.1966 290.648 46.9933 292.518 45.9712 294.509C48.6624 315.941 55.8434 335.346 67.8893 353.773C66.6601 354.485 66.0391 354.847 64.797 355.559C53.1133 336.625 46.3334 316.81 44.1727 295.064C40.6534 292.892 37.3928 290.153 34.391 287.052C31.1564 283.709 28.077 279.775 25.7221 275.829C28.2193 279.594 31.4281 283.323 34.7663 286.448C37.6516 289.139 40.7698 291.541 44.0433 293.423Z" fill="#5148FF"/>
<path d="M429.138 293.073C431.389 291.347 433.705 289.767 435.917 287.908C437.444 286.629 438.906 285.217 440.304 283.697C441.429 279.147 441.934 274.03 441.688 269.372C441.455 269.626 441.196 269.867 440.951 270.084C436.733 273.813 431.906 277.409 427.857 281.259C427.326 281.766 426.809 282.333 426.278 282.912C428.258 279.582 430.431 276.444 432.786 273.56C435.348 270.422 438.143 267.598 440.304 263.942C440.549 263.532 440.782 263.097 440.989 262.663C439.786 256.279 437.289 250.137 432.579 245.298C431.544 248.363 430.638 251.537 429.694 254.614C428.905 257.16 428.064 259.718 427.365 262.301C427.779 255.941 428.931 249.654 430.496 243.463C427.986 241.533 425.437 240.41 423.121 239.771C422.448 242.208 421.853 244.706 421.323 247.192C421.206 244.586 421.129 241.955 421.103 239.336C416.833 238.576 413.792 239.276 413.792 239.276C412.887 239.409 410.687 240.024 407.957 241.207C408.85 244.091 409.328 247.132 409.497 250.173C408.345 247.409 406.883 244.851 405.162 242.546C403.183 243.584 401.086 244.875 399.042 246.444C402.122 250.716 403.467 255.314 404.632 260.261C403.765 258.391 402.73 256.617 401.565 254.976C399.974 252.731 398.149 250.728 396.247 248.809C392.832 251.814 389.778 256.557 388.717 260.829C389.261 261.444 389.843 262.059 390.412 262.639C393.284 265.644 396.325 268.709 398.098 272.655C398.887 274.405 399.404 276.299 399.819 278.218C399.844 278.327 399.857 278.423 399.896 278.52C397.904 274.718 394.527 270.772 391.111 268.057C390.063 267.224 388.963 266.416 387.811 265.74C387.307 269.722 386.906 273.463 386.634 277.023C387.048 277.385 387.462 277.747 387.889 278.109C392.327 281.983 396.131 286.822 397.671 292.313C397.722 292.518 397.787 292.747 397.839 292.952C395.795 289.429 393.66 286.014 390.645 283.491C389.338 282.393 387.902 281.488 386.388 280.68C386.155 286.074 386.078 291.42 386.155 296.826C386.388 297.092 386.621 297.369 386.854 297.623C389.235 300.302 391.797 303.005 393.168 306.504C394.009 308.652 394.345 311.03 394.345 313.479C394.229 313.323 394.113 313.166 393.996 313.009C391.835 310.137 389.286 307.59 386.492 305.37C387.113 317.558 382.351 346.557 382.351 346.557C382.364 346.557 407.336 328.745 418.593 318.91C416.975 319.284 415.384 319.694 413.779 320.105C411.735 320.623 409.652 321.13 407.595 321.613C408.06 321.323 408.539 321.034 409.005 320.78C410.182 320.153 411.399 319.61 412.576 318.97C413.909 318.246 415.203 317.365 416.509 316.52C419.654 314.481 422.875 312.635 426.11 311.054C431.557 304.525 435.426 297.55 438.505 289.839C438.259 290.044 438.026 290.225 437.781 290.43C436.215 291.734 434.611 293.025 432.967 294.026C431.376 294.992 429.707 295.692 428.077 296.392C426.019 297.273 423.936 298.19 421.905 299.216C424.247 297.031 426.666 294.968 429.138 293.073Z" fill="url(#paint11_linear)"/>
<path d="M404.554 313.926C406.236 310.1 407 308.17 408.371 304.236C410.674 302.148 413.042 300.084 415.423 298.069C417.933 295.945 420.508 293.797 423.056 291.649C425.592 289.513 428.154 287.329 430.69 285.133C433.226 282.936 435.749 280.68 438.259 278.459C435.685 280.571 433.123 282.707 430.535 284.795C427.947 286.895 425.347 288.97 422.759 291.01C420.158 293.061 417.532 295.125 414.957 297.176C413.016 298.721 411.075 300.314 409.147 301.931C410.674 297.273 411.334 294.907 412.421 290.129C414.789 288.174 417.092 286.05 419.24 283.745C421.426 281.392 423.522 278.797 425.437 276.058C427.365 273.318 429.125 270.374 430.703 267.285C432.282 264.195 433.692 260.937 434.818 257.498C433.601 260.877 432.101 264.051 430.444 267.055C428.788 270.06 426.964 272.908 424.984 275.539C423.005 278.182 420.87 280.656 418.657 282.9C416.807 284.771 414.853 286.508 412.848 288.113C413.624 284.457 413.935 282.611 414.439 278.894C414.491 278.942 414.517 278.954 414.582 279.002C415.953 276.553 417.247 274.006 418.373 271.376C419.498 268.745 420.585 265.993 421.413 263.23C423.134 257.45 424.221 251.742 425.062 245.696C424.027 251.657 422.759 257.269 420.844 262.94C419.938 265.644 418.774 268.31 417.57 270.857C416.704 272.679 415.772 274.441 414.789 276.154C415.578 267.526 415.681 259.127 415.125 250.487C415.448 259.187 415.099 267.623 414.038 276.275C412.641 271.858 411.308 267.393 409.82 263.013C408.125 258.005 406.249 253.045 404.269 248.097C406.068 253.129 407.737 258.162 409.238 263.254C409.988 265.812 410.674 268.419 411.373 271.026C412.071 273.632 412.744 276.251 413.495 278.882C413.546 278.858 413.585 278.833 413.637 278.809C413.094 282.08 412.77 283.709 412.033 286.931C411.476 284.493 410.778 282.116 409.937 279.847C408.798 276.806 407.465 273.874 405.926 271.134C404.386 268.395 402.691 265.776 400.841 263.339C398.99 260.901 396.985 258.62 394.837 256.532C396.92 258.693 398.835 261.046 400.595 263.544C402.367 266.042 403.959 268.721 405.395 271.508C406.818 274.296 408.048 277.253 409.07 280.306C410.092 283.347 410.816 286.557 411.334 289.827C410.144 294.473 409.432 296.778 407.815 301.303C407.336 298.938 406.65 296.669 405.809 294.533C404.671 291.649 403.221 288.91 401.63 286.376C400.026 283.853 398.227 281.476 396.299 279.268C394.371 277.071 392.314 275.02 390.115 273.174C392.249 275.104 394.229 277.228 396.066 279.497C397.904 281.766 399.612 284.203 401.099 286.774C402.587 289.356 403.92 292.132 404.929 295.028C405.887 297.767 406.585 300.7 406.922 303.729C405.589 307.228 404.865 308.954 403.273 312.369C402.885 310.644 402.367 308.966 401.721 307.397C400.789 305.141 399.624 302.993 398.305 301.038C396.985 299.071 395.523 297.236 393.957 295.523C392.392 293.821 390.71 292.228 388.911 290.804C390.632 292.313 392.236 293.978 393.724 295.752C395.212 297.526 396.571 299.433 397.774 301.448C398.978 303.463 400.013 305.648 400.828 307.916C401.552 309.944 402.044 312.116 402.329 314.348C392.185 334.139 378.431 350.611 360.343 364.646C361.274 365.708 361.753 366.251 362.684 367.313C380.605 352.675 394.113 335.696 403.868 315.434C408.009 314.433 412.123 312.779 416.108 310.728C420.404 308.508 424.751 305.66 428.413 302.582C424.674 305.442 420.288 308.049 415.966 310.028C412.214 311.754 408.371 313.117 404.554 313.926Z" fill="#5148FF"/>
<path d="M104.609 295.475C102.358 293.749 100.042 292.168 97.8294 290.31C96.3027 289.03 94.8406 287.619 93.4432 286.098C92.3176 281.549 91.813 276.432 92.0588 271.774C92.2917 272.027 92.5505 272.269 92.7963 272.486C97.0143 276.215 101.84 279.811 105.89 283.66C106.421 284.167 106.938 284.734 107.469 285.314C105.489 281.983 103.315 278.845 100.961 275.961C98.3987 272.824 95.604 270 93.4432 266.343C93.1974 265.933 92.9645 265.499 92.7575 265.064C93.9608 258.68 96.4579 252.538 101.168 247.699C102.203 250.764 103.108 253.938 104.053 257.015C104.842 259.561 105.683 262.12 106.382 264.702C105.968 258.343 104.816 252.055 103.251 245.865C105.761 243.934 108.31 242.812 110.626 242.172C111.299 244.61 111.894 247.108 112.424 249.594C112.541 246.987 112.618 244.356 112.644 241.738C116.914 240.977 119.955 241.677 119.955 241.677C120.86 241.81 123.06 242.425 125.79 243.608C124.897 246.492 124.418 249.533 124.25 252.574C125.402 249.811 126.864 247.252 128.585 244.948C130.564 245.985 132.673 247.277 134.705 248.845C131.625 253.117 130.28 257.715 129.115 262.663C129.982 260.792 131.017 259.018 132.182 257.377C133.773 255.133 135.597 253.129 137.499 251.211C140.915 254.215 143.969 258.958 145.03 263.23C144.486 263.845 143.904 264.461 143.335 265.04C140.462 268.045 137.422 271.11 135.649 275.056C134.873 276.806 134.342 278.701 133.928 280.619C133.903 280.728 133.89 280.824 133.851 280.921C135.843 277.12 139.22 273.174 142.636 270.458C143.684 269.626 144.784 268.817 145.936 268.141C146.44 272.124 146.841 275.865 147.113 279.425C146.699 279.787 146.285 280.149 145.858 280.511C141.42 284.384 137.616 289.223 136.076 294.714C136.024 294.919 135.96 295.149 135.908 295.354C137.952 291.83 140.087 288.415 143.102 285.893C144.409 284.795 145.845 283.89 147.359 283.081C147.592 288.475 147.669 293.821 147.592 299.228C147.359 299.493 147.126 299.771 146.893 300.024C144.512 302.703 141.95 305.406 140.579 308.906C139.738 311.054 139.401 313.431 139.401 315.881C139.518 315.724 139.634 315.567 139.751 315.41C141.912 312.538 144.461 309.992 147.255 307.771C146.634 319.96 151.396 348.958 151.396 348.958C151.383 348.958 126.411 331.146 115.154 321.311C116.772 321.685 118.363 322.096 119.968 322.506C122.012 323.025 124.095 323.532 126.152 324.014C125.686 323.725 125.208 323.435 124.742 323.182C123.565 322.554 122.348 322.011 121.171 321.372C119.838 320.647 118.544 319.767 117.237 318.922C114.093 316.882 110.872 315.036 107.637 313.455C102.19 306.927 98.3211 299.952 95.2417 292.24C95.4875 292.446 95.7204 292.627 95.9663 292.832C97.5319 294.135 99.1363 295.426 100.779 296.428C102.371 297.393 104.04 298.093 105.67 298.793C107.728 299.674 109.811 300.591 111.842 301.617C109.5 299.433 107.081 297.357 104.609 295.475Z" fill="url(#paint12_linear)"/>
<path d="M129.193 316.315C127.511 312.49 126.747 310.559 125.376 306.625C123.073 304.537 120.705 302.474 118.324 300.458C115.814 298.335 113.239 296.187 110.691 294.039C108.155 291.903 105.593 289.718 103.057 287.522C100.521 285.326 97.9977 283.069 95.4875 280.849C98.0623 282.961 100.624 285.096 103.212 287.184C105.8 289.284 108.4 291.36 110.988 293.399C113.589 295.45 116.215 297.514 118.79 299.566C120.731 301.11 122.672 302.703 124.6 304.32C123.073 299.662 122.413 297.297 121.326 292.518C118.958 290.563 116.655 288.439 114.507 286.134C112.321 283.781 110.225 281.187 108.31 278.447C106.382 275.708 104.622 272.763 103.044 269.674C101.465 266.585 100.055 263.327 98.9292 259.887C100.145 263.266 101.646 266.44 103.303 269.445C104.959 272.45 106.783 275.298 108.763 277.928C110.742 280.571 112.877 283.045 115.09 285.29C116.94 287.16 118.894 288.898 120.899 290.503C120.123 286.846 119.812 285 119.308 281.283C119.256 281.331 119.23 281.343 119.165 281.392C117.794 278.942 116.5 276.396 115.374 273.765C114.249 271.134 113.162 268.383 112.334 265.619C110.613 259.839 109.526 254.131 108.685 248.085C109.72 254.047 110.988 259.658 112.903 265.33C113.809 268.033 114.973 270.7 116.177 273.246C117.043 275.068 117.975 276.83 118.958 278.544C118.169 269.915 118.066 261.516 118.622 252.876C118.298 261.577 118.648 270.012 119.709 278.664C121.106 274.248 122.439 269.783 123.927 265.402C125.622 260.394 127.498 255.434 129.477 250.487C127.679 255.519 126.01 260.551 124.509 265.644C123.759 268.202 123.073 270.808 122.374 273.415C121.675 276.022 121.003 278.64 120.252 281.271C120.2 281.247 120.162 281.223 120.11 281.199C120.653 284.469 120.977 286.098 121.714 289.32C122.271 286.882 122.969 284.505 123.81 282.236C124.949 279.195 126.282 276.263 127.808 273.524C129.348 270.784 131.043 268.166 132.893 265.728C134.744 263.29 136.749 261.01 138.897 258.922C136.814 261.082 134.899 263.435 133.139 265.933C131.367 268.431 129.775 271.11 128.339 273.898C126.916 276.685 125.686 279.642 124.664 282.695C123.642 285.736 122.918 288.946 122.4 292.216C123.59 296.862 124.302 299.167 125.919 303.693C126.398 301.327 127.084 299.059 127.925 296.923C129.063 294.039 130.513 291.299 132.104 288.765C133.708 286.243 135.507 283.866 137.435 281.657C139.363 279.461 141.42 277.409 143.619 275.563C141.485 277.494 139.505 279.618 137.668 281.886C135.83 284.155 134.122 286.593 132.635 289.163C131.134 291.746 129.814 294.521 128.805 297.417C127.847 300.157 127.149 303.089 126.812 306.118C128.145 309.618 128.869 311.343 130.461 314.759C130.849 313.033 131.367 311.356 132.013 309.787C132.945 307.53 134.11 305.394 135.429 303.427C136.749 301.46 138.211 299.626 139.777 297.912C141.342 296.211 143.024 294.618 144.823 293.194C143.102 294.702 141.498 296.368 140.01 298.142C138.522 299.915 137.163 301.822 135.96 303.837C134.756 305.853 133.721 308.037 132.906 310.294C132.182 312.321 131.69 314.493 131.405 316.726C141.549 336.516 155.303 352.989 173.391 367.023C172.46 368.097 171.981 368.628 171.05 369.69C153.129 355.052 139.621 338.073 129.866 317.812C125.725 316.81 121.611 315.157 117.626 313.105C113.33 310.885 108.983 308.037 105.321 304.96C109.06 307.82 113.446 310.426 117.768 312.405C121.533 314.155 125.376 315.507 129.193 316.315Z" fill="#5148FF"/>
<path d="M199.528 332.944C197.276 331.219 194.96 329.638 192.748 327.78C191.221 326.5 189.759 325.088 188.361 323.568C187.236 319.018 186.731 313.902 186.977 309.244C187.21 309.497 187.469 309.739 187.715 309.956C191.933 313.685 196.759 317.281 200.808 321.13C201.339 321.637 201.857 322.204 202.387 322.784C200.407 319.453 198.234 316.315 195.879 313.431C193.317 310.294 190.522 307.47 188.361 303.813C188.116 303.403 187.883 302.969 187.676 302.534C188.879 296.15 191.376 290.008 196.086 285.169C197.121 288.234 198.027 291.408 198.971 294.485C199.76 297.031 200.601 299.59 201.3 302.172C200.886 295.813 199.735 289.525 198.169 283.335C200.679 281.404 203.228 280.282 205.544 279.642C206.217 282.08 206.812 284.578 207.343 287.064C207.459 284.457 207.537 281.826 207.562 279.208C211.832 278.447 214.873 279.147 214.873 279.147C215.779 279.28 217.978 279.895 220.708 281.078C219.815 283.962 219.337 287.003 219.168 290.044C220.32 287.281 221.782 284.722 223.503 282.418C225.483 283.455 227.579 284.747 229.623 286.315C226.544 290.587 225.198 295.185 224.033 300.133C224.9 298.262 225.935 296.488 227.1 294.847C228.691 292.603 230.516 290.599 232.418 288.681C235.834 291.685 238.887 296.428 239.948 300.7C239.405 301.315 238.822 301.931 238.253 302.51C235.381 305.515 232.34 308.58 230.567 312.526C229.791 314.276 229.261 316.171 228.847 318.089C228.821 318.198 228.808 318.294 228.769 318.391C230.762 314.59 234.139 310.644 237.554 307.928C238.602 307.096 239.702 306.287 240.854 305.611C241.358 309.594 241.759 313.335 242.031 316.895C241.617 317.257 241.203 317.619 240.776 317.981C236.338 321.854 232.534 326.693 230.994 332.184C230.943 332.389 230.878 332.619 230.826 332.824C232.871 329.3 235.005 325.885 238.02 323.363C239.327 322.265 240.763 321.36 242.277 320.551C242.51 325.945 242.588 331.291 242.51 336.697C242.277 336.963 242.044 337.241 241.811 337.494C239.43 340.173 236.869 342.876 235.497 346.376C234.656 348.524 234.32 350.901 234.32 353.351C234.436 353.194 234.553 353.037 234.669 352.88C236.83 350.008 239.379 347.462 242.173 345.241C241.552 357.43 246.314 386.428 246.314 386.428C246.301 386.428 221.329 368.616 210.073 358.781C211.69 359.155 213.281 359.566 214.886 359.976C216.93 360.495 219.013 361.002 221.07 361.484C220.605 361.195 220.126 360.905 219.66 360.652C218.483 360.024 217.267 359.481 216.089 358.841C214.756 358.117 213.463 357.236 212.156 356.392C209.012 354.352 205.79 352.506 202.555 350.925C197.108 344.397 193.239 337.422 190.16 329.71C190.406 329.916 190.639 330.097 190.885 330.302C192.45 331.605 194.054 332.896 195.698 333.898C197.289 334.863 198.958 335.563 200.589 336.263C202.646 337.144 204.729 338.061 206.76 339.087C204.418 336.903 201.999 334.839 199.528 332.944Z" fill="url(#paint13_linear)"/>
<path d="M224.098 353.797C222.416 349.972 221.653 348.041 220.281 344.107C217.978 342.019 215.61 339.956 213.23 337.94C210.72 335.817 208.145 333.668 205.596 331.52C203.06 329.385 200.498 327.2 197.962 325.004C195.426 322.808 192.903 320.551 190.393 318.331C192.968 320.442 195.53 322.578 198.117 324.666C200.705 326.766 203.306 328.841 205.893 330.881C208.494 332.932 211.121 334.996 213.695 337.047C215.636 338.592 217.577 340.185 219.505 341.802C217.978 337.144 217.318 334.779 216.231 330C213.864 328.045 211.561 325.921 209.413 323.616C207.226 321.263 205.13 318.668 203.215 315.929C201.287 313.19 199.528 310.245 197.949 307.156C196.371 304.067 194.96 300.808 193.835 297.369C195.051 300.748 196.552 303.922 198.208 306.927C199.864 309.932 201.688 312.78 203.668 315.41C205.648 318.053 207.782 320.527 209.995 322.771C211.845 324.642 213.799 326.38 215.804 327.985C215.028 324.328 214.718 322.482 214.213 318.765C214.161 318.813 214.135 318.825 214.071 318.874C212.699 316.424 211.405 313.878 210.28 311.247C209.154 308.616 208.067 305.865 207.239 303.101C205.518 297.321 204.431 291.613 203.59 285.567C204.625 291.529 205.893 297.14 207.808 302.812C208.714 305.515 209.879 308.182 211.082 310.728C211.949 312.55 212.88 314.312 213.864 316.026C213.074 307.397 212.971 298.998 213.527 290.358C213.204 299.059 213.553 307.494 214.614 316.146C216.011 311.73 217.344 307.265 218.832 302.884C220.527 297.876 222.403 292.916 224.383 287.969C222.584 293.001 220.915 298.033 219.414 303.125C218.651 305.684 217.978 308.29 217.279 310.897C216.581 313.504 215.908 316.122 215.157 318.753C215.106 318.729 215.067 318.705 215.015 318.681C215.559 321.951 215.882 323.58 216.62 326.802C217.176 324.364 217.875 321.987 218.716 319.718C219.854 316.677 221.187 313.745 222.727 311.006C224.266 308.266 225.961 305.648 227.812 303.21C229.662 300.772 231.667 298.492 233.815 296.404C231.732 298.564 229.817 300.917 228.057 303.415C226.285 305.913 224.693 308.592 223.257 311.38C221.834 314.167 220.605 317.124 219.583 320.177C218.56 323.218 217.836 326.428 217.318 329.698C218.509 334.344 219.22 336.649 220.838 341.175C221.316 338.809 222.002 336.541 222.843 334.405C223.982 331.52 225.431 328.781 227.022 326.247C228.627 323.725 230.425 321.347 232.353 319.139C234.281 316.943 236.338 314.891 238.538 313.045C236.403 314.976 234.423 317.1 232.586 319.368C230.749 321.637 229.041 324.075 227.553 326.645C226.065 329.228 224.732 332.003 223.723 334.899C222.765 337.639 222.067 340.571 221.73 343.6C223.063 347.1 223.788 348.825 225.379 352.241C225.767 350.515 226.285 348.837 226.932 347.269C227.863 345.012 229.028 342.876 230.348 340.909C231.667 338.942 233.129 337.108 234.695 335.394C236.261 333.693 237.943 332.1 239.741 330.676C238.02 332.184 236.416 333.849 234.928 335.623C233.44 337.397 232.081 339.304 230.878 341.319C229.675 343.335 228.64 345.519 227.824 347.775C227.1 349.803 226.608 351.975 226.324 354.207C236.468 373.998 250.221 390.471 268.31 404.505C267.378 405.579 266.899 406.11 265.968 407.172C248.048 392.534 234.54 375.555 224.784 355.294C220.644 354.292 216.529 352.639 212.544 350.587C208.248 348.367 203.901 345.519 200.239 342.442C203.978 345.302 208.365 347.908 212.686 349.887C216.438 351.637 220.294 352.989 224.098 353.797Z" fill="#5148FF"/>
<path d="M507.921 294.678C510.574 292.651 513.304 290.792 515.904 288.596C517.703 287.088 519.424 285.434 521.067 283.636C522.4 278.29 522.995 272.269 522.697 266.778C522.413 267.068 522.128 267.357 521.83 267.611C516.862 272.003 511.182 276.227 506.433 280.752C505.812 281.343 505.191 282.019 504.583 282.695C506.912 278.785 509.461 275.08 512.243 271.689C515.257 267.997 518.544 264.678 521.08 260.37C521.365 259.887 521.636 259.38 521.882 258.874C520.459 251.368 517.522 244.139 511.984 238.443C510.768 242.039 509.694 245.78 508.581 249.401C507.662 252.405 506.666 255.41 505.851 258.439C506.343 250.957 507.701 243.56 509.539 236.271C506.589 234.002 503.587 232.687 500.87 231.927C500.08 234.799 499.382 237.731 498.761 240.652C498.631 237.586 498.528 234.497 498.502 231.408C493.482 230.515 489.898 231.347 489.898 231.347C488.837 231.492 486.249 232.216 483.027 233.616C484.075 237.007 484.645 240.591 484.839 244.175C483.493 240.929 481.772 237.912 479.728 235.209C477.399 236.428 474.928 237.948 472.534 239.795C476.157 244.815 477.735 250.233 479.107 256.05C478.085 253.853 476.868 251.766 475.497 249.835C473.621 247.204 471.473 244.839 469.235 242.582C465.224 246.118 461.627 251.693 460.385 256.726C461.031 257.45 461.717 258.162 462.377 258.862C465.754 262.397 469.338 266.006 471.421 270.652C472.34 272.703 472.961 274.936 473.453 277.192C473.478 277.325 473.504 277.434 473.543 277.554C471.201 273.089 467.229 268.431 463.205 265.245C461.976 264.268 460.682 263.314 459.324 262.518C458.728 267.2 458.263 271.605 457.926 275.804C458.418 276.227 458.897 276.649 459.401 277.084C464.628 281.645 469.105 287.329 470.917 293.797C470.981 294.039 471.059 294.304 471.124 294.545C468.717 290.406 466.207 286.376 462.662 283.419C461.122 282.128 459.427 281.054 457.654 280.113C457.383 286.46 457.292 292.747 457.383 299.107C457.654 299.421 457.939 299.747 458.211 300.048C461.019 303.21 464.033 306.384 465.638 310.499C466.621 313.021 467.022 315.821 467.022 318.693C466.893 318.512 466.737 318.319 466.608 318.138C464.072 314.759 461.057 311.766 457.784 309.147C458.521 323.483 452.919 357.598 452.919 357.598C452.932 357.598 482.316 336.649 495.552 325.076C493.65 325.511 491.774 325.994 489.898 326.476C487.491 327.092 485.046 327.683 482.626 328.25C483.17 327.912 483.726 327.574 484.282 327.273C485.667 326.524 487.09 325.897 488.487 325.137C490.053 324.28 491.58 323.242 493.106 322.253C496.807 319.851 500.585 317.679 504.402 315.821C510.807 308.146 515.361 299.94 518.984 290.865C518.699 291.106 518.415 291.323 518.13 291.565C516.293 293.097 514.404 294.618 512.463 295.788C510.587 296.923 508.633 297.755 506.718 298.576C504.298 299.614 501.84 300.688 499.459 301.895C502.164 299.336 505.01 296.899 507.921 294.678Z" fill="url(#paint14_linear)"/>
<path d="M479.003 319.211C480.983 314.71 481.876 312.429 483.493 307.82C486.21 305.358 488.992 302.932 491.787 300.567C494.737 298.069 497.764 295.547 500.766 293.013C503.755 290.491 506.77 287.932 509.746 285.338C512.722 282.755 515.684 280.1 518.66 277.482C515.633 279.968 512.618 282.478 509.577 284.94C506.537 287.401 503.47 289.851 500.417 292.252C497.363 294.666 494.271 297.092 491.243 299.505C488.953 301.327 486.663 303.198 484.412 305.092C486.21 299.602 486.986 296.826 488.254 291.203C491.036 288.898 493.74 286.412 496.263 283.684C498.838 280.909 501.297 277.868 503.561 274.646C505.825 271.424 507.908 267.96 509.759 264.328C511.622 260.696 513.278 256.858 514.611 252.816C513.174 256.786 511.415 260.527 509.474 264.063C507.533 267.598 505.372 270.941 503.043 274.042C500.714 277.144 498.204 280.064 495.604 282.707C493.43 284.915 491.127 286.955 488.772 288.837C489.678 284.529 490.053 282.357 490.648 277.989C490.713 278.037 490.739 278.061 490.803 278.121C492.421 275.237 493.935 272.244 495.267 269.155C496.6 266.066 497.868 262.832 498.838 259.573C500.87 252.767 502.151 246.058 503.134 238.95C501.918 245.961 500.417 252.562 498.178 259.236C497.117 262.409 495.746 265.559 494.323 268.552C493.313 270.688 492.201 272.775 491.049 274.791C491.981 264.642 492.11 254.758 491.437 244.598C491.813 254.831 491.411 264.763 490.169 274.935C488.526 269.734 486.948 264.485 485.214 259.332C483.221 253.443 481.009 247.602 478.68 241.786C480.789 247.711 482.756 253.636 484.528 259.622C485.421 262.627 486.223 265.704 487.038 268.769C487.866 271.834 488.656 274.923 489.535 278.001C489.6 277.964 489.639 277.952 489.704 277.916C489.07 281.766 488.694 283.672 487.815 287.474C487.155 284.614 486.34 281.814 485.343 279.147C484.011 275.575 482.432 272.124 480.634 268.89C478.835 265.656 476.83 262.578 474.643 259.718C472.456 256.846 470.101 254.167 467.578 251.717C470.024 254.252 472.275 257.027 474.358 259.96C476.441 262.904 478.318 266.042 480 269.324C481.682 272.606 483.118 276.094 484.321 279.678C485.511 283.262 486.378 287.039 486.986 290.877C485.589 296.343 484.748 299.059 482.846 304.368C482.277 301.593 481.475 298.914 480.478 296.404C479.133 293.013 477.438 289.779 475.562 286.798C473.685 283.829 471.551 281.03 469.286 278.447C467.022 275.865 464.603 273.451 462.015 271.267C464.525 273.536 466.854 276.034 469.015 278.701C471.175 281.367 473.181 284.24 474.941 287.269C476.7 290.31 478.253 293.58 479.456 296.971C480.595 300.205 481.397 303.644 481.798 307.204C480.232 311.319 479.366 313.359 477.515 317.365C477.062 315.326 476.454 313.359 475.691 311.524C474.591 308.87 473.233 306.347 471.68 304.03C470.127 301.713 468.419 299.553 466.569 297.55C464.719 295.547 462.739 293.676 460.63 291.999C462.662 293.773 464.538 295.728 466.285 297.816C468.031 299.903 469.636 302.148 471.046 304.513C472.469 306.89 473.685 309.449 474.643 312.116C475.497 314.505 476.079 317.063 476.416 319.682C464.486 342.973 448.3 362.353 427.016 378.849C428.115 380.104 428.672 380.732 429.772 381.987C450.849 364.767 466.75 344.783 478.227 320.949C483.105 319.767 487.931 317.836 492.615 315.41C497.674 312.804 502.785 309.449 507.093 305.828C502.707 309.195 497.531 312.261 492.447 314.59C488.009 316.665 483.493 318.258 479.003 319.211Z" fill="#5148FF"/>
<path d="M408.837 383.858H368.999C368.999 363.946 354.934 344.312 344.428 327.574C344.092 327.043 343.755 326.5 343.419 325.969C334.362 311.368 322.587 297.828 319.107 280.849C318.098 275.913 317.891 270.567 320.375 266.102C323.014 261.335 328.384 258.294 333.961 256.955C400.297 241.098 414.18 323.725 408.837 383.858Z" fill="url(#paint15_linear)"/>
<path d="M391.706 383.858H389.998C389.856 375.434 388.898 367.011 387.449 358.721C385.689 348.681 383.024 338.809 379.556 329.191C372.647 309.956 362.063 291.891 348.206 276.106C347.067 274.755 348.077 274.043 349.267 275.237C364.418 290.189 375.985 308.471 382.985 328.117C386.505 337.94 389.015 348.077 390.412 358.335C391.576 366.794 392.12 375.338 391.706 383.858Z" fill="#5148FF"/>
<path d="M445.854 383.858H413.094C407.75 337.892 409.212 222.659 480.582 233.966C535.338 242.643 447.265 309.039 445.854 383.858Z" fill="url(#paint16_linear)"/>
<path d="M463.774 259.356C459.453 263.87 455.882 268.962 452.738 274.236C449.594 279.497 446.928 285.036 444.703 290.708C442.439 296.368 440.498 302.148 438.906 308.025C437.302 313.89 435.93 319.803 434.831 325.788C432.566 337.723 431.195 349.815 430.341 361.931C429.849 369.232 429.526 376.545 429.448 383.846H427.223C426.925 376.496 426.951 369.135 427.223 361.786C427.727 349.537 428.956 337.289 431.259 325.173C432.385 319.115 433.847 313.105 435.581 307.18C437.289 301.231 439.398 295.39 441.895 289.67C443.085 286.798 444.522 284.011 445.932 281.223C447.472 278.484 448.96 275.744 450.745 273.138C454.2 267.888 458.107 262.856 462.778 258.488C464.176 257.112 465.094 257.884 463.774 259.356Z" fill="#5148FF"/>
<path d="M468.135 383.858H447.329C447.329 383.858 441.843 342.973 465.392 343.009C486.818 343.021 472.508 368.278 468.135 383.858Z" fill="url(#paint17_linear)"/>
<path d="M461.937 353.097C458.845 362.293 457.538 371.923 456.8 381.517C456.762 382.289 456.71 383.085 456.671 383.858H454.86C454.886 383.025 454.937 382.216 454.989 381.396C455.752 371.694 457.486 361.967 461.303 352.868C461.627 352.156 462.196 352.373 461.937 353.097Z" fill="#5148FF"/>
<path d="M354.701 383.858H328.009C328.009 351.939 289.296 320.599 318.486 317.208C328.876 316.002 336.277 320.961 341.556 328.672C354.701 347.824 354.701 383.858 354.701 383.858Z" fill="url(#paint18_linear)"/>
<path d="M344.48 383.858H342.772C342.151 379.018 341.362 374.167 340.378 369.389C338.89 362.691 337.053 356.09 334.62 349.646C333.973 348.041 333.249 346.472 332.576 344.903C332.227 344.119 331.916 343.31 331.528 342.538L330.299 340.257L329.083 337.952C328.669 337.192 328.28 336.42 327.776 335.708L324.903 331.339C324.308 330.446 324.787 330.072 325.46 330.989L328.578 335.261C329.134 335.973 329.561 336.734 329.988 337.494L331.334 339.763L332.667 342.043C333.094 342.804 333.43 343.612 333.818 344.397C334.543 345.989 335.332 347.558 336.018 349.163C338.67 355.619 340.65 362.305 342.164 369.075C343.173 373.962 343.949 378.898 344.48 383.858Z" fill="#5148FF"/>
<path d="M490.325 383.858H470.891C470.891 335.853 490.596 296.778 518.246 297.297C545.909 297.792 492.524 350.406 490.325 383.858Z" fill="url(#paint19_linear)"/>
<path d="M508.762 311.259C505.89 314.445 503.419 317.944 501.128 321.528C500.572 322.421 499.99 323.314 499.434 324.22L497.868 326.983C496.768 328.805 495.888 330.724 494.918 332.606C491.205 340.185 488.319 348.101 486.016 356.15C483.597 365.237 481.979 374.505 481.099 383.845H479.611C480.233 374.372 481.772 364.936 484.244 355.716C486.585 347.582 489.613 339.582 493.546 331.991C494.556 330.108 495.513 328.19 496.665 326.392L498.334 323.64C498.916 322.723 499.524 321.842 500.132 320.961C502.565 317.413 505.191 313.974 508.232 310.837C509.215 309.871 509.681 310.269 508.762 311.259Z" fill="#5148FF"/>
<path d="M121.65 383.858H81.8113C81.8113 363.946 67.747 344.312 57.2408 327.574C56.9044 327.043 56.568 326.5 56.2316 325.969C47.1745 311.368 35.4003 297.828 31.9198 280.849C30.9105 275.913 30.7035 270.567 33.1877 266.102C35.8272 261.335 41.1968 258.294 46.7734 256.955C113.11 241.098 126.98 323.725 121.65 383.858Z" fill="url(#paint20_linear)"/>
<path d="M104.519 383.858H102.811C102.669 375.434 101.711 367.011 100.262 358.721C98.5023 348.681 95.8369 338.809 92.3693 329.191C85.4601 309.956 74.8762 291.891 61.0189 276.106C59.8803 274.755 60.8895 274.043 62.0798 275.237C77.2311 290.189 88.7982 308.471 95.7981 328.117C99.3174 337.94 101.828 348.077 103.225 358.335C104.389 366.794 104.933 375.338 104.519 383.858Z" fill="#5148FF"/>
<path d="M158.667 383.858H125.906C120.563 337.892 122.025 222.659 193.395 233.966C248.151 242.643 160.065 309.039 158.667 383.858Z" fill="url(#paint21_linear)"/>
<path d="M176.574 259.356C172.253 263.87 168.682 268.962 165.538 274.236C162.394 279.497 159.728 285.036 157.503 290.708C155.238 296.368 153.298 302.148 151.706 308.025C150.102 313.89 148.73 319.803 147.63 325.788C145.366 337.723 143.995 349.815 143.141 361.931C142.649 369.232 142.326 376.545 142.248 383.846H140.023C139.725 376.496 139.751 369.135 140.023 361.786C140.527 349.537 141.756 337.289 144.059 325.173C145.185 319.115 146.647 313.105 148.381 307.18C150.089 301.231 152.198 295.39 154.695 289.67C155.885 286.798 157.322 284.011 158.732 281.223C160.272 278.484 161.76 275.744 163.545 273.138C167 267.888 170.907 262.856 175.578 258.488C176.988 257.112 177.907 257.884 176.574 259.356Z" fill="#5148FF"/>
<path d="M180.948 383.858H160.142C160.142 383.858 154.656 342.973 178.205 343.009C199.631 343.021 185.321 368.278 180.948 383.858Z" fill="url(#paint22_linear)"/>
<path d="M174.75 353.097C171.658 362.293 170.351 371.923 169.613 381.517C169.574 382.289 169.523 383.085 169.484 383.858H167.673C167.698 383.025 167.75 382.216 167.802 381.396C168.565 371.694 170.299 361.967 174.116 352.868C174.439 352.156 175.009 352.373 174.75 353.097Z" fill="#5148FF"/>
<path d="M78.3179 383.858H51.6254C51.6254 351.939 12.9128 320.599 42.1025 317.208C52.4923 316.002 59.8932 320.961 65.1722 328.672C78.3179 347.824 78.3179 383.858 78.3179 383.858Z" fill="url(#paint23_linear)"/>
<path d="M68.1093 383.858H66.4014C65.7803 379.018 64.991 374.167 64.0077 369.389C62.5198 362.691 60.6825 356.09 58.25 349.646C57.603 348.041 56.8785 346.472 56.2057 344.903C55.8563 344.119 55.5458 343.31 55.1576 342.538L53.9285 340.257L52.7122 337.952C52.2982 337.192 51.91 336.42 51.4054 335.708L48.533 331.339C47.9378 330.446 48.4166 330.072 49.0894 330.989L52.2076 335.261C52.764 335.973 53.191 336.734 53.6179 337.494L54.9636 339.763L56.2962 342.043C56.7232 342.804 57.0596 343.612 57.4478 344.397C58.1724 345.99 58.9616 347.558 59.6474 349.163C62.2998 355.619 64.2794 362.305 65.7932 369.075C66.7895 373.962 67.5658 378.898 68.1093 383.858Z" fill="#5148FF"/>
<path d="M203.125 383.858H183.691C183.691 335.853 203.396 296.778 231.046 297.297C258.722 297.792 205.337 350.406 203.125 383.858Z" fill="url(#paint24_linear)"/>
<path d="M221.562 311.259C218.69 314.445 216.218 317.944 213.928 321.528C213.372 322.421 212.79 323.314 212.233 324.22L210.668 326.983C209.568 328.805 208.688 330.724 207.718 332.606C204.004 340.185 201.119 348.101 198.816 356.15C196.396 365.237 194.779 374.505 193.899 383.845H192.411C193.032 374.372 194.572 364.936 197.043 355.716C199.398 347.582 202.413 339.582 206.346 331.991C207.355 330.108 208.313 328.19 209.464 326.392L211.134 323.64C211.716 322.723 212.324 321.842 212.932 320.961C215.365 317.413 217.991 313.974 221.032 310.837C222.015 309.871 222.481 310.269 221.562 311.259Z" fill="#5148FF"/>
<path d="M42.8529 366.215C55.6881 363.934 64.9522 372.924 65.5603 373.492C66.1296 371.645 71.7192 354.678 89.8721 348.669C101.349 344.855 111.454 347.57 114.934 348.669C112.631 342.876 113.848 336.432 118.078 331.822C122.646 326.862 130.021 324.847 136.891 326.73C144.655 315.543 158.9 309.751 172.913 312.08C186.744 314.409 197.833 324.183 201.132 336.951C205.324 331.122 212.841 328.178 219.945 329.626C226.298 330.893 231.37 335.418 233.298 341.331C241.954 332.908 255.073 329.747 266.964 333.307C277.561 336.42 285.66 344.385 288.636 354.268C297.15 347.993 308.614 345.627 319.275 348.753C335.216 353.435 345.256 369.22 341.788 385.185C324.321 385.185 306.854 385.185 289.4 385.185H267.624H23.2379C25.1657 375.519 33.0713 367.928 42.8529 366.215Z" fill="url(#paint25_linear)"/>
<path d="M223.115 370.306C235.95 368.025 245.214 377.015 245.822 377.583C246.391 375.736 251.981 358.769 270.134 352.76C281.611 348.946 291.716 351.661 295.196 352.76C292.893 346.967 294.109 340.523 298.34 335.913C302.908 330.953 310.283 328.938 317.153 330.821C324.916 319.634 339.162 313.842 353.174 316.171C367.006 318.5 378.094 328.274 381.394 341.042C385.586 335.213 393.103 332.269 400.207 333.717C406.56 334.984 411.632 339.509 413.559 345.422C422.215 336.999 435.335 333.838 447.226 337.398C457.823 340.511 465.922 348.476 468.898 358.359C477.412 352.084 488.875 349.719 499.537 352.844C515.477 357.526 525.518 373.311 522.05 389.276C504.583 389.276 487.116 389.276 469.662 389.276H447.886H203.513C205.441 379.598 213.333 372.019 223.115 370.306Z" fill="url(#paint26_linear)"/>
<path d="M268.982 435.374C366.58 435.374 445.699 422.64 445.699 406.931C445.699 391.222 366.58 378.488 268.982 378.488C171.385 378.488 92.2658 391.222 92.2658 406.931C92.2658 422.64 171.385 435.374 268.982 435.374Z" fill="#E6F3F9"/>
<path d="M521.08 255.833C520.86 255.748 520.653 255.712 520.433 255.712C520.097 255.712 519.734 255.809 519.424 256.002L499.485 268.287L488.267 267.176C484.114 266.766 479.974 268.178 477.088 270.99L475.018 273.005L409.781 305.817C409.781 305.817 395.173 284.3 379.298 260.901L351.57 278.773C360.951 293.713 386.945 332.703 404.386 334.851C405.783 334.803 407.09 334.791 408.345 334.851C433.33 332.196 481.565 283.962 481.565 283.962L499.938 280.185L521.753 258.584C522.658 257.703 522.296 256.267 521.08 255.833Z" fill="#FFC8AF"/>
<path d="M390.464 383.496C383.244 385.97 370.901 389.433 356.28 393.258C341.18 397.217 323.661 401.561 306.815 405.64C294.795 399.184 283.539 393.234 273.006 387.756C297.849 374.855 318.693 364.646 336.238 356.766C368.843 342.116 389.985 335.563 404.062 334.875H404.489C405.693 335.008 406.999 335.008 408.358 334.851C418.049 335.262 423.859 338.966 427.831 344.964C435.853 357.08 420.883 373.021 390.464 383.496Z" fill="#F4B49A"/>
<path d="M404.412 334.863C405.809 334.815 407.116 334.803 408.371 334.863C406.999 335.009 405.706 335.009 404.489 334.876C404.451 334.876 404.438 334.876 404.412 334.863Z" fill="black"/>
<path d="M404.489 334.875C404.425 334.875 404.347 334.875 404.282 334.875C404.334 334.863 404.373 334.863 404.412 334.863C404.438 334.875 404.451 334.875 404.489 334.875Z" fill="black"/>
<path d="M406.689 300.398L378.961 318.27L329.212 263.17C331.45 247.772 333.12 233.013 332.097 219.497C330.299 195.966 312.379 186.07 298.496 181.919C298.496 181.919 326.275 186.698 340.132 203.23C340.986 204.232 341.788 205.282 342.513 206.38C348.659 215.612 364.535 239.083 406.689 300.398Z" fill="url(#paint27_linear)"/>
<path d="M343.897 403.166C329.639 403.83 311.822 409.031 311.822 409.031C311.822 409.031 314.436 410.358 316.196 412.651L310.994 413.544L302.675 420.676C305.418 425.358 314.462 427.675 329.898 427.675C341.685 427.675 354.494 425.744 358.001 418.081C362.283 408.693 358.156 402.49 343.897 403.166Z" fill="url(#paint28_linear)"/>
<path d="M202.102 403.166C216.361 403.83 234.177 409.031 234.177 409.031C234.177 409.031 231.564 410.358 229.804 412.651L235.005 413.544L243.325 420.676C240.582 425.358 231.538 427.675 216.102 427.675C204.315 427.675 191.506 425.744 187.999 418.081C183.716 408.693 187.857 402.49 202.102 403.166Z" fill="url(#paint29_linear)"/>
<path d="M342.241 173.689C342.319 174.28 342.293 174.932 342.164 175.668C341.646 178.576 340.559 180.748 341.672 183.657C342.435 185.648 343.535 187.542 343.923 189.63C344.363 191.995 343.38 193.999 342.642 196.171C342.371 196.955 339.861 202.941 340.132 203.254C326.275 186.71 298.496 181.943 298.496 181.943C296.335 181.303 294.265 180.785 292.376 180.398C286.307 179.119 282.025 178.974 282.025 178.974V170.431C291.651 164.916 298.496 151.267 298.496 138.548C298.496 131.295 296.27 125.563 292.557 121.424C286.903 118.142 279.23 120.616 276.28 124.272C272.851 128.556 271.531 135.435 256.6 135.157C250.648 135.036 248.177 139.875 248.229 145.801C250.208 156.143 256.173 165.978 263.988 170.431V178.974C263.988 178.974 259.705 179.119 253.637 180.398C251.748 180.785 249.678 181.303 247.517 181.943C247.517 181.943 216.244 187.313 203.5 206.416C202.439 208.009 201.067 210.036 199.476 212.414C200.524 210.845 196.332 204.654 195.607 202.916C194.896 201.227 193.679 199.562 193.149 197.8C190.897 190.318 198.907 183.379 201.352 176.645C202.84 172.566 200.317 167.136 203.603 163.6C205.777 161.259 209.283 160.016 211.677 157.832C214.304 155.431 216.089 152.196 216.736 148.817C217.383 145.487 216.775 141.855 218.431 138.838C220.165 135.664 223.917 133.999 226.699 131.561C232.314 126.625 231.538 120.809 231.835 114.328C232.547 99.1956 244.735 88.3469 259.473 83.8819C268.465 81.1546 278.829 80.2254 286.954 85.6558C287.847 86.2592 288.598 87.4177 289.503 87.9004C290.461 88.3951 291.302 87.8642 292.57 87.7435C301.536 86.8505 308.174 95.8891 310.503 102.852C313.31 111.251 309.882 120.724 318.072 126.613C323.351 130.414 319.275 135.254 321.643 140.032C323.92 144.63 332.511 143.037 335.073 148.649C337.752 154.525 332.175 161.452 337.014 166.834C339.278 169.308 341.892 170.732 342.241 173.689Z" fill="url(#paint30_linear)"/>
<path d="M332.097 219.509C333.133 233.025 331.45 247.772 329.212 263.182C325.305 290.394 319.689 319.67 324.477 347.788C308.821 350.78 292 353.085 272.993 353.085C253.987 353.085 237.179 350.768 221.523 347.788C226.324 319.67 220.708 290.406 216.788 263.182C214.549 247.784 212.88 233.025 213.902 219.509C215.701 195.978 233.621 186.082 247.504 181.931C249.665 181.291 251.735 180.772 253.624 180.386C253.896 185.334 256.328 196.919 272.981 196.931H273.006C289.658 196.919 292.091 185.346 292.363 180.386C294.252 180.772 296.322 181.291 298.483 181.931C312.379 186.07 330.286 195.965 332.097 219.509Z" fill="url(#paint31_linear)"/>
<path d="M324.476 347.776C352.644 342.418 377.124 334.924 404.062 334.875C382.403 335.937 344.066 350.865 273.006 387.756C201.895 350.841 163.584 335.925 141.899 334.875C168.863 334.9 193.356 342.406 221.523 347.776C237.179 350.768 253.987 353.073 272.993 353.073C292 353.073 308.821 350.756 324.476 347.776Z" fill="url(#paint32_linear)"/>
<path d="M318.162 417.418C317.283 420.446 314.708 422.848 308.627 421.919C307.941 421.81 307.579 421.714 307.579 421.714C307.579 421.714 293.152 418.431 272.993 413.689C262.798 411.275 251.166 408.512 239.198 405.628C222.351 401.549 204.807 397.204 189.72 393.246C175.086 389.445 162.743 385.969 155.51 383.484C125.091 373.009 110.134 357.068 118.156 344.952C122.128 338.954 127.951 335.249 137.629 334.839C138.987 334.996 140.268 334.996 141.485 334.863H141.899C156.002 335.527 177.131 342.092 209.762 356.754C227.294 364.634 248.151 374.831 273.006 387.743C283.526 393.21 294.795 399.171 306.815 405.628C308.924 406.762 311.059 407.908 313.22 409.079C313.22 409.091 319.663 412.337 318.162 417.418Z" fill="#FFC8AF"/>
<path d="M292.544 121.412C296.257 125.551 298.483 131.283 298.483 138.536C298.483 151.255 291.638 164.916 282.012 170.418C279.217 172.035 276.163 172.953 272.981 172.953C269.811 172.953 266.77 172.035 263.962 170.418C256.16 165.966 250.183 156.13 248.203 145.789V145.776C248.151 139.863 250.622 135.024 256.574 135.145C271.506 135.435 272.825 128.544 276.254 124.26C279.217 120.591 286.903 118.118 292.544 121.412Z" fill="#FFC8AF"/>
<path d="M292.363 180.374C292.104 185.334 289.659 196.907 273.006 196.919H272.993C256.341 196.907 253.896 185.334 253.637 180.374C259.705 179.107 263.975 178.95 263.975 178.95V170.418C266.77 172.048 269.811 172.953 272.993 172.953C276.189 172.953 279.23 172.036 282.025 170.418V178.95C282.025 178.95 286.294 179.107 292.363 180.374Z" fill="#FFC8AF"/>
<path d="M272.993 413.701C252.848 418.443 238.408 421.726 238.408 421.726C238.408 421.726 238.033 421.798 237.36 421.919C231.279 422.848 228.704 420.447 227.812 417.418C226.337 412.325 232.78 409.091 232.78 409.091C234.941 407.92 237.076 406.774 239.185 405.64C251.166 408.536 262.811 411.299 272.993 413.701Z" fill="#F4B49A"/>
<path d="M166.689 260.901L166.676 260.889C150.826 284.288 136.206 305.817 136.206 305.817L70.9817 273.017V273.005L68.9115 270.99C66.0132 268.178 61.8858 266.766 57.7324 267.176L46.5146 268.287L26.5761 256.002C26.2655 255.821 25.9162 255.712 25.5669 255.712C25.3469 255.712 25.1399 255.748 24.9199 255.833C23.7037 256.267 23.3414 257.703 24.2342 258.596L46.0488 280.197L64.4217 283.974C64.4217 283.974 112.657 332.209 137.642 334.863C138.897 334.803 140.204 334.803 141.588 334.863C159.029 332.752 185.049 293.737 194.43 278.785L166.689 260.901Z" fill="#FFC8AF"/>
<path d="M141.717 334.875C141.653 334.875 141.588 334.875 141.523 334.875C141.536 334.875 141.575 334.875 141.588 334.863C141.614 334.863 141.666 334.863 141.717 334.875Z" fill="black"/>
<path d="M141.588 334.863C141.575 334.876 141.536 334.876 141.523 334.876H141.51C140.307 335.009 139.013 335.009 137.642 334.863C138.897 334.803 140.204 334.803 141.588 334.863Z" fill="black"/>
<path d="M390.464 383.496C383.244 385.97 370.9 389.433 356.28 393.258C355.594 370.052 341.918 359.964 336.238 356.766C368.843 342.116 389.985 335.563 404.062 334.875H404.489C405.693 335.008 406.999 335.008 408.358 334.851C418.049 335.262 423.859 338.966 427.831 344.964C435.853 357.08 420.883 373.021 390.464 383.496Z" fill="url(#paint33_linear)"/>
<path d="M209.762 356.766C204.082 359.952 190.406 370.04 189.72 393.258C175.086 389.457 162.743 385.982 155.51 383.496C125.091 373.021 110.134 357.08 118.156 344.964C122.128 338.966 127.951 335.262 137.629 334.851C138.987 335.008 140.268 335.008 141.485 334.875H141.899C156.002 335.551 177.131 342.104 209.762 356.766Z" fill="url(#paint34_linear)"/>
<path d="M139.324 300.398L167.051 318.27L216.801 263.17C214.562 247.772 212.893 233.013 213.915 219.497C215.714 195.966 233.634 186.07 247.517 181.919C247.517 181.919 219.738 186.698 205.88 203.23C205.026 204.232 204.224 205.282 203.5 206.38C197.354 215.612 181.465 239.083 139.324 300.398Z" fill="url(#paint35_linear)"/>
<path d="M282.025 170.418V173.628C279.23 175.258 276.189 176.163 272.993 176.163C269.811 176.163 266.77 175.245 263.975 173.628V170.418C266.77 172.048 269.811 172.953 272.993 172.953C276.189 172.953 279.23 172.048 282.025 170.418Z" fill="#F4B095"/>
<path d="M187.96 67.4819L189.138 70.3299L192.204 71.4401L189.138 72.5383L187.96 75.3862L186.783 72.5383L183.729 71.4401L186.783 70.3299L187.96 67.4819Z" fill="#A5B7C6"/>
<path d="M310.451 9.17139L311.628 12.0193L314.682 13.1175L311.628 14.2156L310.451 17.0636L309.274 14.2156L306.207 13.1175L309.274 12.0193L310.451 9.17139Z" fill="#A5B7C6"/>
<path d="M210.901 19.8271L211.651 21.6494L213.605 22.3493L211.651 23.0492L210.901 24.8714L210.15 23.0492L208.196 22.3493L210.15 21.6494L210.901 19.8271Z" fill="#A5B7C6"/>
<path d="M389.455 74.6743L390.205 76.4965L392.159 77.1964L390.205 77.8964L389.455 79.7186L388.704 77.8964L386.75 77.1964L388.704 76.4965L389.455 74.6743Z" fill="#A5B7C6"/>
<path d="M132.402 59.469L133.152 61.2912L135.106 61.9911L133.152 62.7031L132.402 64.5132L131.651 62.7031L129.697 61.9911L131.651 61.2912L132.402 59.469Z" fill="#A5B7C6"/>
<path d="M423.768 35.0203L424.531 36.8425L426.485 37.5545L424.531 38.2544L423.768 40.0766L423.018 38.2544L421.064 37.5545L423.018 36.8425L423.768 35.0203Z" fill="#A5B7C6"/>
<path d="M435.038 414.582C435.038 414.582 486.158 412.132 485.046 399.051C484.282 389.988 458.198 394.369 458.159 394.296C458.159 394.296 494.167 373.226 479.443 361.907C467.708 353.846 443.939 378.005 443.836 377.945C443.836 377.945 451.159 358.274 440.537 356.307C425.152 353.472 417.325 389.276 417.325 389.276C417.325 389.276 419.317 367.289 407.09 368.713C391.033 370.583 385.159 402.744 385.159 402.744C385.159 402.744 373.268 376.376 361.96 391.533C353.627 402.707 349.552 417.49 351.169 431.199C356.72 445.897 397.076 463.878 408.397 450.314C415.358 441.975 398.124 431.959 398.124 431.959C412.071 437.39 444.366 446.44 453.76 431.356C460.54 420.519 435.038 414.594 435.038 414.582Z" fill="url(#paint36_linear)"/>
<path d="M381.006 438.379C378.107 436.834 375.416 435.073 372.932 433.19C371.004 431.742 369.27 430.137 367.679 428.46C379.337 424.827 390.723 420.459 401.733 415.39C404.334 417.321 407.116 419.143 410.079 420.652C413.339 422.317 416.949 423.777 420.676 424.924C424.402 426.07 428.361 426.915 432.463 427.434C436.564 427.953 440.808 428.182 445.181 427.929C440.847 428.049 436.668 427.687 432.644 427.048C428.633 426.408 424.777 425.443 421.167 424.2C417.557 422.957 414.09 421.4 410.959 419.674C408.28 418.178 405.77 416.44 403.428 414.594C411.929 410.672 420.365 406.183 428.322 401.368C431.803 402.43 435.374 403.335 439.165 403.769C441.106 404.083 443.137 404.156 445.143 404.3C447.187 404.337 449.244 404.385 451.301 404.288C455.39 404.095 459.66 403.649 463.891 402.816C468.122 401.995 472.392 400.873 476.584 399.316C472.366 400.752 468.122 401.73 463.917 402.43C459.712 403.118 455.507 403.431 451.483 403.504C449.464 403.54 447.446 403.431 445.453 403.335C443.499 403.13 441.52 402.997 439.631 402.635C436.306 402.152 433.161 401.283 430.134 400.282C445.518 390.519 459.569 379.912 473.026 367.892C459.246 379.538 444.923 389.771 429.267 399.123C429.448 396.239 429.72 393.343 430.224 390.447C430.794 387.116 431.454 383.773 432.269 380.479C433.084 377.184 433.938 373.878 434.895 370.62C435.84 367.361 436.849 364.127 437.962 360.929C436.72 364.091 435.581 367.301 434.494 370.547C433.407 373.781 432.398 377.088 431.441 380.382C430.483 383.689 429.668 387.044 428.943 390.411C428.245 393.633 427.805 396.879 427.468 400.137C419.369 404.759 410.803 409.019 402.173 412.711C401.63 410.02 401.345 407.221 401.397 404.433C401.462 401.211 401.837 397.88 402.393 394.634C402.95 391.388 403.687 388.118 404.541 384.908C405.382 381.698 406.314 378.512 407.413 375.386C406.184 378.476 405.123 381.649 404.14 384.847C403.157 388.045 402.277 391.304 401.565 394.574C400.854 397.844 400.323 401.211 400.103 404.518C399.896 407.474 400.051 410.491 400.517 413.423C389.506 418.142 378.146 422.16 366.553 425.443C366.734 422.896 367.006 420.338 367.446 417.792C367.989 414.606 368.623 411.396 369.4 408.246C370.176 405.085 371.004 401.923 371.91 398.798C372.815 395.672 373.773 392.559 374.834 389.493C373.644 392.522 372.557 395.612 371.509 398.725C370.461 401.826 369.49 404.988 368.559 408.15C367.627 411.312 366.838 414.522 366.126 417.744C365.518 420.459 365.104 423.21 364.768 425.962C351.156 429.799 337.131 432.442 323.04 434.216C323.312 435.917 323.454 436.774 323.726 438.476C337.972 436.316 352.139 433.263 365.841 429.015C367.679 430.825 369.658 432.526 371.845 434.047C374.485 435.881 377.318 437.559 380.346 439.031C383.36 440.491 386.543 441.818 389.843 442.941C393.155 444.063 396.584 445.04 400.168 445.765C396.661 444.92 393.31 443.834 390.114 442.603C386.957 441.348 383.891 439.924 381.006 438.379Z" fill="white"/>
<path d="M208.339 440.153C207.757 437.269 204.755 435.543 204.431 435.362C207.084 434.747 208.598 432.599 208.222 430.221C207.847 427.772 205.635 425.636 202.814 424.984C204.819 423.114 205.389 420.374 204.38 417.913C203.112 414.811 199.566 412.579 195.62 412.555C198.221 407.281 197.017 401.078 193.019 396.951C187.922 391.69 180.378 392.197 179.925 392.233C180.275 387.937 177.726 383.966 173.715 382.313C170.234 380.877 166.081 381.372 163.183 383.761C163.959 378.898 161.617 374.143 157.451 371.778C152.508 368.978 147.307 371.03 146.971 371.175C146.311 365.117 142.766 359.723 137.474 356.814C131.457 353.508 125.674 355.077 124.768 355.354C124.548 354.751 122.788 349.863 118.053 347.426C113.977 345.326 106.563 345.978 104.816 350.563C101.905 349.948 96.1862 351.287 94.116 355.197C92.3176 358.576 92.7445 363.536 95.2805 367.868C89.1993 369.039 85.9647 375.628 88.2807 383.182C90.4156 390.169 96.8591 396.143 103.277 397.168C102.876 397.639 99.5891 401.525 101.931 408.15C103.794 413.423 108.607 418.226 114.003 420.254C113.783 420.857 111.881 426.179 116.474 432.768C120.123 437.993 126.45 441.722 132.246 442.18C133.139 447.478 137.538 453.102 143.516 456.384C150.076 459.968 157.257 460.077 161.345 456.963C163.351 461.585 169.277 465.133 174.038 465C177.959 464.892 180.469 462.394 180.249 458.966C183.484 461.959 188.361 463.214 191.609 462.08C194.287 461.139 195.504 458.761 194.87 456.07C197.16 457.289 199.786 457.591 201.598 456.83C204.004 455.817 206.346 451.086 204.224 447.345C207.174 446.501 208.843 442.603 208.339 440.153Z" fill="url(#paint37_linear)"/>
<path d="M185.709 419.711C185.58 422.595 185.411 425.527 185.075 428.399C184.959 429.847 184.726 431.283 184.545 432.707C184.428 433.612 184.26 434.518 184.105 435.423C175.332 430.342 171.114 427.53 163.105 421.473C163.39 420.314 163.7 419.156 163.946 418.009C164.244 416.585 164.593 415.113 164.865 413.677C165.395 410.829 165.939 407.848 166.353 404.952C166.767 402.056 167.077 399.087 167.297 396.167C167.517 393.246 167.672 390.302 167.569 387.382C167.569 390.302 167.297 393.21 166.961 396.106C166.624 399.003 166.185 401.923 165.654 404.771C165.124 407.607 164.464 410.539 163.804 413.315C163.467 414.715 163.066 416.151 162.704 417.538C162.445 418.516 162.122 419.518 161.824 420.495C154.553 414.908 151.085 411.903 144.525 405.555C145.03 403.311 145.521 401.042 145.936 398.785C146.375 396.372 146.764 393.886 147.1 391.436C147.436 388.987 147.695 386.501 147.915 384.039C148.135 381.577 148.303 379.103 148.316 376.629C148.187 379.091 147.902 381.529 147.579 383.954C147.255 386.38 146.88 388.818 146.414 391.219C145.961 393.621 145.457 396.046 144.887 398.387C144.409 400.378 143.865 402.382 143.296 404.361C135.261 396.444 131.522 392.197 124.716 383.242C125.997 379.453 127.071 375.555 127.938 371.609C128.818 367.579 130.047 359.397 130.047 359.397C130.047 359.397 128.611 367.506 127.614 371.464C126.67 375.242 125.518 378.934 124.186 382.53C117.018 372.997 113.796 367.941 108.18 357.357C111.557 364.115 113.421 367.41 117.457 373.781C114.145 374.421 110.691 374.699 107.158 374.638C103.51 374.59 96.0051 373.54 96.0051 373.54C96.0051 373.54 103.535 374.843 107.236 375.024C110.872 375.193 114.443 375.036 117.897 374.457C124.121 384.208 127.601 388.854 135.235 397.603C133.32 398.194 131.367 398.725 129.348 399.123C127.058 399.582 124.703 399.956 122.309 400.185C117.535 400.656 112.567 400.752 107.482 400.318C112.631 401.006 117.677 401.163 122.568 400.921C125.014 400.801 127.433 400.535 129.801 400.185C132.013 399.847 134.174 399.365 136.296 398.81C142.662 405.99 146.078 409.405 153.311 415.813C148.989 418.552 144.085 420.676 138.884 422.257C133.333 423.946 127.407 425.105 121.184 425.6C127.511 425.358 133.579 424.429 139.298 422.945C144.732 421.533 149.882 419.554 154.488 416.851C161.915 423.331 165.861 426.372 174.103 431.971C172.253 433.335 170.325 434.638 168.281 435.809C165.848 437.209 163.26 438.524 160.582 439.67C155.213 441.951 149.416 443.785 143.18 444.859C149.558 444.015 155.523 442.41 161.087 440.31C163.869 439.26 166.547 438.017 169.083 436.702C171.295 435.555 173.391 434.24 175.41 432.864C191.984 443.749 209.464 451.69 228.316 458.423C228.795 457.072 229.041 456.396 229.519 455.044C214.148 449.916 199.502 444.196 185.528 436.231C185.644 435.169 185.8 434.095 185.877 433.045C185.994 431.597 186.162 430.125 186.201 428.653C186.408 425.72 186.447 422.74 186.447 419.831C186.447 416.911 186.317 413.93 186.11 411.01C185.903 408.09 185.618 405.157 185.075 402.273C185.502 405.157 185.67 408.077 185.761 410.986C185.825 413.882 185.825 416.826 185.709 419.711Z" fill="white"/>
</g>
<defs>
<linearGradient id="paint0_linear" x1="272.994" y1="9.50473e-05" x2="272.994" y2="374.006" gradientUnits="userSpaceOnUse">
<stop stop-color="#FBD15B"/>
<stop offset="0.3708" stop-color="#FF8578"/>
<stop offset="1" stop-color="#4333F1"/>
</linearGradient>
<linearGradient id="paint1_linear" x1="173.856" y1="325.169" x2="173.856" y2="152.438" gradientUnits="userSpaceOnUse">
<stop stop-color="#FBD15B"/>
<stop offset="0.3708" stop-color="#FF8578"/>
<stop offset="1" stop-color="#4333F1"/>
</linearGradient>
<linearGradient id="paint2_linear" x1="354.122" y1="277.319" x2="354.122" y2="154.05" gradientUnits="userSpaceOnUse">
<stop stop-color="#FBD15B"/>
<stop offset="0.3708" stop-color="#FF8578"/>
<stop offset="1" stop-color="#4333F1"/>
</linearGradient>
<linearGradient id="paint3_linear" x1="471.62" y1="228.648" x2="456.254" y2="144.62" gradientUnits="userSpaceOnUse">
<stop stop-color="#FBD15B"/>
<stop offset="0.3708" stop-color="#FF8578"/>
<stop offset="1" stop-color="#4333F1"/>
</linearGradient>
<linearGradient id="paint4_linear" x1="57.7476" y1="247.835" x2="77.5281" y2="196.018" gradientUnits="userSpaceOnUse">
<stop stop-color="#FBD15B"/>
<stop offset="0.3708" stop-color="#FF8578"/>
<stop offset="1" stop-color="#4333F1"/>
</linearGradient>
<linearGradient id="paint5_linear" x1="80.4398" y1="227.9" x2="111.119" y2="147.533" gradientUnits="userSpaceOnUse">
<stop stop-color="#FBD15B"/>
<stop offset="0.3708" stop-color="#FF8578"/>
<stop offset="1" stop-color="#4333F1"/>
</linearGradient>
<linearGradient id="paint6_linear" x1="243.351" y1="354.864" x2="243.351" y2="172.409" gradientUnits="userSpaceOnUse">
<stop stop-color="#FBD15B"/>
<stop offset="0.3708" stop-color="#FF8578"/>
<stop offset="1" stop-color="#4333F1"/>
</linearGradient>
<linearGradient id="paint7_linear" x1="507.242" y1="271.106" x2="486.792" y2="155.287" gradientUnits="userSpaceOnUse">
<stop stop-color="white"/>
<stop offset="1" stop-color="#BEE1F4"/>
</linearGradient>
<linearGradient id="paint8_linear" x1="15.2426" y1="261.669" x2="49.6635" y2="176.756" gradientUnits="userSpaceOnUse">
<stop stop-color="white"/>
<stop offset="1" stop-color="#BEE1F4"/>
</linearGradient>
<linearGradient id="paint9_linear" x1="333.288" y1="197.918" x2="365.326" y2="349.003" gradientUnits="userSpaceOnUse">
<stop stop-color="#26E6FF"/>
<stop offset="0.4856" stop-color="#4189FF"/>
<stop offset="0.8345" stop-color="#534CFF"/>
<stop offset="1" stop-color="#5A35FF"/>
</linearGradient>
<linearGradient id="paint10_linear" x1="56.8028" y1="219.572" x2="34.1814" y2="326.25" gradientUnits="userSpaceOnUse">
<stop stop-color="#26E6FF"/>
<stop offset="0.4856" stop-color="#4189FF"/>
<stop offset="0.8345" stop-color="#534CFF"/>
<stop offset="1" stop-color="#5A35FF"/>
</linearGradient>
<linearGradient id="paint11_linear" x1="418.328" y1="238.954" x2="407.416" y2="349.025" gradientUnits="userSpaceOnUse">
<stop stop-color="#26E6FF"/>
<stop offset="0.4856" stop-color="#4189FF"/>
<stop offset="0.8345" stop-color="#534CFF"/>
<stop offset="1" stop-color="#5A35FF"/>
</linearGradient>
<linearGradient id="paint12_linear" x1="115.417" y1="241.351" x2="126.33" y2="351.422" gradientUnits="userSpaceOnUse">
<stop stop-color="#26E6FF"/>
<stop offset="0.4856" stop-color="#4189FF"/>
<stop offset="0.8345" stop-color="#534CFF"/>
<stop offset="1" stop-color="#5A35FF"/>
</linearGradient>
<linearGradient id="paint13_linear" x1="210.333" y1="278.828" x2="221.246" y2="388.899" gradientUnits="userSpaceOnUse">
<stop stop-color="#26E6FF"/>
<stop offset="0.4856" stop-color="#4189FF"/>
<stop offset="0.8345" stop-color="#534CFF"/>
<stop offset="1" stop-color="#5A35FF"/>
</linearGradient>
<linearGradient id="paint14_linear" x1="495.202" y1="231.01" x2="482.364" y2="360.507" gradientUnits="userSpaceOnUse">
<stop stop-color="#26E6FF"/>
<stop offset="0.4856" stop-color="#4189FF"/>
<stop offset="0.8345" stop-color="#534CFF"/>
<stop offset="1" stop-color="#5A35FF"/>
</linearGradient>
<linearGradient id="paint15_linear" x1="364.136" y1="254.974" x2="364.136" y2="383.854" gradientUnits="userSpaceOnUse">
<stop stop-color="#435DF1"/>
<stop offset="0.327" stop-color="#4333F1"/>
<stop offset="1" stop-color="#4C008C"/>
</linearGradient>
<linearGradient id="paint16_linear" x1="454.861" y1="233.19" x2="454.861" y2="383.854" gradientUnits="userSpaceOnUse">
<stop stop-color="#435DF1"/>
<stop offset="0.327" stop-color="#4333F1"/>
<stop offset="1" stop-color="#4C008C"/>
</linearGradient>
<linearGradient id="paint17_linear" x1="461.827" y1="343.002" x2="461.827" y2="383.854" gradientUnits="userSpaceOnUse">
<stop stop-color="#435DF1"/>
<stop offset="0.327" stop-color="#4333F1"/>
<stop offset="1" stop-color="#4C008C"/>
</linearGradient>
<linearGradient id="paint18_linear" x1="331.142" y1="317.028" x2="331.142" y2="383.854" gradientUnits="userSpaceOnUse">
<stop stop-color="#435DF1"/>
<stop offset="0.327" stop-color="#4333F1"/>
<stop offset="1" stop-color="#4C008C"/>
</linearGradient>
<linearGradient id="paint19_linear" x1="498.537" y1="297.288" x2="498.537" y2="383.854" gradientUnits="userSpaceOnUse">
<stop stop-color="#435DF1"/>
<stop offset="0.327" stop-color="#4333F1"/>
<stop offset="1" stop-color="#4C008C"/>
</linearGradient>
<linearGradient id="paint20_linear" x1="76.9457" y1="254.974" x2="76.9457" y2="383.854" gradientUnits="userSpaceOnUse">
<stop stop-color="#435DF1"/>
<stop offset="0.327" stop-color="#4333F1"/>
<stop offset="1" stop-color="#4C008C"/>
</linearGradient>
<linearGradient id="paint21_linear" x1="167.67" y1="233.19" x2="167.67" y2="383.854" gradientUnits="userSpaceOnUse">
<stop stop-color="#435DF1"/>
<stop offset="0.327" stop-color="#4333F1"/>
<stop offset="1" stop-color="#4C008C"/>
</linearGradient>
<linearGradient id="paint22_linear" x1="174.637" y1="343.002" x2="174.637" y2="383.854" gradientUnits="userSpaceOnUse">
<stop stop-color="#435DF1"/>
<stop offset="0.327" stop-color="#4333F1"/>
<stop offset="1" stop-color="#4C008C"/>
</linearGradient>
<linearGradient id="paint23_linear" x1="54.7638" y1="317.028" x2="54.7638" y2="383.854" gradientUnits="userSpaceOnUse">
<stop stop-color="#435DF1"/>
<stop offset="0.327" stop-color="#4333F1"/>
<stop offset="1" stop-color="#4C008C"/>
</linearGradient>
<linearGradient id="paint24_linear" x1="211.346" y1="297.288" x2="211.346" y2="383.854" gradientUnits="userSpaceOnUse">
<stop stop-color="#435DF1"/>
<stop offset="0.327" stop-color="#4333F1"/>
<stop offset="1" stop-color="#4C008C"/>
</linearGradient>
<linearGradient id="paint25_linear" x1="182.869" y1="385.21" x2="182.869" y2="311.587" gradientUnits="userSpaceOnUse">
<stop stop-color="#F9FBFC"/>
<stop offset="1" stop-color="#BEE1F4"/>
</linearGradient>
<linearGradient id="paint26_linear" x1="363.136" y1="389.296" x2="363.136" y2="315.672" gradientUnits="userSpaceOnUse">
<stop stop-color="#F9FBFC"/>
<stop offset="1" stop-color="#BEE1F4"/>
</linearGradient>
<linearGradient id="paint27_linear" x1="352.587" y1="170.877" x2="352.587" y2="279.221" gradientUnits="userSpaceOnUse">
<stop stop-color="#FF697D"/>
<stop offset="1" stop-color="#DE2276"/>
</linearGradient>
<linearGradient id="paint28_linear" x1="331.134" y1="401.88" x2="331.134" y2="434.581" gradientUnits="userSpaceOnUse">
<stop stop-color="#682692"/>
<stop offset="1" stop-color="#291D7A"/>
</linearGradient>
<linearGradient id="paint29_linear" x1="214.871" y1="401.88" x2="214.871" y2="434.581" gradientUnits="userSpaceOnUse">
<stop stop-color="#682692"/>
<stop offset="1" stop-color="#291D7A"/>
</linearGradient>
<linearGradient id="paint30_linear" x1="268.394" y1="81.6799" x2="268.394" y2="212.402" gradientUnits="userSpaceOnUse">
<stop stop-color="#682692"/>
<stop offset="0.036" stop-color="#632590"/>
<stop offset="0.2583" stop-color="#4A2286"/>
<stop offset="0.4886" stop-color="#371F7F"/>
<stop offset="0.73" stop-color="#2D1E7B"/>
<stop offset="1" stop-color="#291D7A"/>
</linearGradient>
<linearGradient id="paint31_linear" x1="273.002" y1="164.993" x2="273.002" y2="357.043" gradientUnits="userSpaceOnUse">
<stop stop-color="#FF697D"/>
<stop offset="1" stop-color="#DE2276"/>
</linearGradient>
<linearGradient id="paint32_linear" x1="272.986" y1="307.705" x2="272.986" y2="360.588" gradientUnits="userSpaceOnUse">
<stop stop-color="#682692"/>
<stop offset="1" stop-color="#291D7A"/>
</linearGradient>
<linearGradient id="paint33_linear" x1="383.108" y1="334.856" x2="383.108" y2="393.258" gradientUnits="userSpaceOnUse">
<stop stop-color="#682692"/>
<stop offset="1" stop-color="#291D7A"/>
</linearGradient>
<linearGradient id="paint34_linear" x1="162.896" y1="334.856" x2="162.896" y2="393.258" gradientUnits="userSpaceOnUse">
<stop stop-color="#682692"/>
<stop offset="1" stop-color="#291D7A"/>
</linearGradient>
<linearGradient id="paint35_linear" x1="193.418" y1="170.877" x2="193.418" y2="279.221" gradientUnits="userSpaceOnUse">
<stop stop-color="#FF697D"/>
<stop offset="1" stop-color="#DE2276"/>
</linearGradient>
<linearGradient id="paint36_linear" x1="382.542" y1="455.652" x2="449.548" y2="343.957" gradientUnits="userSpaceOnUse">
<stop stop-color="white"/>
<stop offset="1" stop-color="#BEE1F4"/>
</linearGradient>
<linearGradient id="paint37_linear" x1="147.988" y1="465.003" x2="147.988" y2="346.275" gradientUnits="userSpaceOnUse">
<stop stop-color="white"/>
<stop offset="1" stop-color="#BEE1F4"/>
</linearGradient>
<clipPath id="clip0">
<rect width="539" height="465" fill="white"/>
</clipPath>
</defs>
</svg>
